<svg width="121" height="120" viewBox="0 0 121 120" fill="none" xmlns="http://www.w3.org/2000/svg">
<path d="M22.054 23.7992L22.5475 22.9887C26.6957 16.1489 34.2006 12.0221 42.1132 12.5275C43.1314 12.5906 44.1434 12.7293 45.141 12.9423C52.336 14.4824 58.5941 19.9204 61.1974 26.8889C62.7232 30.9871 63.1476 35.7099 66.0442 38.9569C69.8133 43.1886 76.2097 43.3221 81.836 43.1456C87.4623 42.9692 93.8634 43.1194 97.6135 47.3702C99.9618 50.0307 100.713 53.807 100.517 57.3831C100.017 66.8191 93.4415 75.2633 85.0807 79.4497C76.7199 83.6361 66.8738 84.0175 57.7215 82.1747C44.9002 79.5904 32.7082 72.4931 25.3797 61.5313C18.0512 50.5695 16.1917 35.6312 22.054 23.7992Z" fill="#F5F5F5"/>
<path d="M40.9799 14.2427H100.383V51.4503H40.9799V14.2427Z" fill="white"/>
<path d="M40.9799 14.2427H100.383V17.6518H40.9799V14.2427Z" fill="#455A64"/>
<path d="M40.974 50.7144H100.398V57.423H40.974V50.7144Z" fill="#F5F5F5"/>
<path d="M88.1874 53.9583H87.6557L87.4888 54.3064H87.3744L87.9061 53.1978H87.9371L88.4688 54.3064H88.3543L88.1874 53.9583ZM87.9204 53.4052L87.7058 53.8558H88.1445L87.9204 53.4052Z" fill="#263238"/>
<path d="M87.288 54.5459H88.5469V54.6341H87.288V54.5459Z" fill="#263238"/>
<path d="M96.0043 53.1333H96.0878C96.2084 53.1418 96.3213 53.1957 96.4036 53.2842C96.4859 53.3728 96.5315 53.4893 96.5312 53.6102C96.4719 53.9622 96.3187 54.2916 96.0878 54.5639C96.0878 54.5639 96.0568 54.6211 96.0043 54.5639C95.7734 54.2916 95.6202 53.9622 95.5609 53.6102C95.5606 53.4893 95.6062 53.3728 95.6885 53.2842C95.7709 53.1957 95.8837 53.1418 96.0043 53.1333ZM96.0472 53.8891C96.0992 53.8891 96.15 53.8737 96.1932 53.8447C96.2364 53.8158 96.27 53.7747 96.2898 53.7266C96.3095 53.6786 96.3146 53.6257 96.3043 53.5748C96.294 53.5239 96.2688 53.4771 96.2318 53.4405C96.1949 53.404 96.148 53.3792 96.0969 53.3693C96.0459 53.3595 95.9931 53.365 95.9452 53.3852C95.8973 53.4054 95.8565 53.4394 95.828 53.4829C95.7995 53.5263 95.7845 53.5773 95.785 53.6292C95.785 53.6977 95.812 53.7635 95.8603 53.8122C95.9085 53.8608 95.974 53.8885 96.0425 53.8891H96.0472Z" fill="#263238"/>
<path d="M90.1131 54.2499C90.1131 54.3213 90.1415 54.3899 90.1921 54.4404C90.2426 54.4909 90.3111 54.5193 90.3826 54.5193C90.454 54.5193 90.5226 54.4909 90.5731 54.4404C90.6236 54.3899 90.652 54.3213 90.652 54.2499V53.3796C90.652 53.3335 90.6337 53.2892 90.601 53.2566C90.5684 53.2239 90.5241 53.2056 90.4779 53.2056C90.4318 53.2056 90.3875 53.2239 90.3549 53.2566C90.3222 53.2892 90.3039 53.3335 90.3039 53.3796V54.1164C90.3087 54.1383 90.3207 54.1579 90.338 54.1722C90.3553 54.1864 90.3768 54.1945 90.3993 54.195C90.422 54.1946 90.4439 54.1866 90.4616 54.1724C90.4793 54.1582 90.4917 54.1385 90.497 54.1164V53.5346H90.5614V54.0782V54.1044C90.5557 54.143 90.5366 54.1783 90.5073 54.2041C90.4781 54.2299 90.4406 54.2444 90.4016 54.2451C90.3628 54.2439 90.3256 54.2292 90.2964 54.2035C90.2673 54.1779 90.248 54.1428 90.2419 54.1044V54.0901C90.2417 54.0862 90.2417 54.0822 90.2419 54.0782V53.3629C90.2419 53.2997 90.267 53.2391 90.3117 53.1943C90.3564 53.1496 90.4171 53.1245 90.4803 53.1245C90.5436 53.1245 90.6042 53.1496 90.6489 53.1943C90.6936 53.2391 90.7188 53.2997 90.7188 53.3629V54.2737C90.7105 54.3566 90.6718 54.4334 90.6101 54.4893C90.5484 54.5453 90.4682 54.5763 90.385 54.5765C90.3018 54.5768 90.2216 54.5459 90.1602 54.4898C90.0988 54.4337 90.0607 54.3566 90.0535 54.2737V53.5346H90.1179L90.1131 54.2499Z" fill="#263238"/>
<path d="M92.9713 53.587L93.2097 53.0815L93.4601 53.587L94.0156 53.6681L93.6127 54.0615L93.7081 54.6146L93.2097 54.3523L92.7114 54.6146L92.8068 54.0615L92.4039 53.6681L92.9713 53.587ZM92.8283 54.4668L93.2193 54.2617L93.6103 54.4668L93.5388 54.0543V54.0329L93.8583 53.7253L93.4219 53.6609L93.2264 53.2651L93.0309 53.6609L92.5946 53.7253L92.8879 54.0114L92.9046 54.0281L92.8283 54.4668Z" fill="#263238"/>
<path d="M83.1611 52.4609H83.2422V55.0479H83.1611V52.4609Z" fill="#263238"/>
<path d="M84.7434 53.3774H85.7734V54.4742H84.7434V53.3774Z" fill="#263238"/>
<path d="M85.4492 53.1191V53.2026H85.0701V53.1191H84.7458V53.2884H85.7734V53.1191H85.4492Z" fill="#263238"/>
<path d="M85.074 53.0342H85.4531V53.1176H85.074V53.0342Z" fill="#263238"/>
<path d="M85.074 53.1196H85.4531V53.2031H85.074V53.1196Z" fill="#263238"/>
<path d="M80.8322 53.9641L80.5175 53.6494L80.4794 53.6876L80.8322 54.0404L81.1875 53.6876L81.1494 53.6494L80.8322 53.9641Z" fill="#263238"/>
<path d="M44.2511 27.3096C44.3418 27.3101 44.4289 27.3456 44.4941 27.4087C44.5594 27.4717 44.5979 27.5575 44.6016 27.6482V28.9786C44.5929 29.102 44.5378 29.2176 44.4473 29.3019C44.3568 29.3863 44.2377 29.4332 44.114 29.4332C43.9903 29.4332 43.8711 29.3863 43.7807 29.3019C43.6902 29.2176 43.635 29.102 43.6264 28.9786V27.9057H43.7218V28.9333C43.7295 29.0326 43.7744 29.1254 43.8476 29.1931C43.9207 29.2608 44.0167 29.2984 44.1164 29.2984C44.216 29.2984 44.312 29.2608 44.3852 29.1931C44.4583 29.1254 44.5032 29.0326 44.511 28.9333V27.6601C44.511 27.5924 44.4841 27.5275 44.4362 27.4797C44.3884 27.4319 44.3235 27.405 44.2558 27.405C44.1882 27.405 44.1233 27.4319 44.0755 27.4797C44.0276 27.5275 44.0007 27.5924 44.0007 27.6601V28.7402C44.0082 28.7719 44.0262 28.8002 44.0517 28.8205C44.0772 28.8409 44.1088 28.852 44.1414 28.8522C44.1727 28.8501 44.2024 28.8381 44.2264 28.818C44.2504 28.7978 44.2674 28.7706 44.2749 28.7402V27.9081H44.3703V28.7044V28.7402C44.3703 28.8034 44.3452 28.864 44.3005 28.9088C44.2557 28.9535 44.1951 28.9786 44.1319 28.9786C44.0686 28.9786 44.008 28.9535 43.9633 28.9088C43.9186 28.864 43.8934 28.8034 43.8934 28.7402V28.7187C43.8934 28.7187 43.8934 28.7068 43.8934 28.702V27.6482C43.8972 27.5563 43.9366 27.4694 44.0034 27.4062C44.0702 27.3429 44.1591 27.3083 44.2511 27.3096Z" fill="#263238"/>
<path d="M98.415 19.5526H98.8203V19.4048H97.8404V19.5526H98.2481V20.5898H98.415V19.5526Z" fill="#263238"/>
<path d="M97.859 20.1414C97.8628 20.0464 97.8381 19.9524 97.7881 19.8715C97.738 19.7906 97.665 19.7266 97.5782 19.6875C97.4915 19.6485 97.3951 19.6363 97.3014 19.6525C97.2076 19.6687 97.1209 19.7125 97.0523 19.7784C96.9837 19.8442 96.9363 19.9291 96.9163 20.0221C96.8963 20.1151 96.9046 20.2119 96.9401 20.3002C96.9755 20.3884 97.0366 20.464 97.1153 20.5173C97.1941 20.5706 97.287 20.5991 97.3821 20.5992C97.4442 20.6032 97.5064 20.5942 97.5648 20.5729C97.6231 20.5516 97.6765 20.5183 97.7213 20.4752C97.7661 20.4322 97.8015 20.3803 97.8252 20.3228C97.849 20.2654 97.8604 20.2036 97.859 20.1414ZM97.0913 20.1414C97.0936 20.082 97.1134 20.0246 97.1482 19.9763C97.1829 19.9281 97.2311 19.8911 97.2868 19.8701C97.3424 19.8491 97.403 19.8449 97.461 19.8581C97.519 19.8713 97.5718 19.9013 97.6129 19.9443C97.6539 19.9873 97.6814 20.0415 97.6919 20.1C97.7024 20.1585 97.6954 20.2189 97.6718 20.2735C97.6482 20.3281 97.6091 20.3745 97.5592 20.407C97.5094 20.4395 97.4511 20.4566 97.3917 20.4562C97.3507 20.4573 97.3099 20.4498 97.272 20.4342C97.2341 20.4185 97.1999 20.3951 97.1716 20.3655C97.1433 20.3358 97.1215 20.3006 97.1077 20.262C97.0938 20.2234 97.0882 20.1823 97.0913 20.1414Z" fill="#263238"/>
<path d="M96.3277 19.7976C96.3277 19.7823 96.3247 19.7673 96.3188 19.7532C96.3129 19.7392 96.3042 19.7265 96.2934 19.7158C96.2825 19.7051 96.2696 19.6968 96.2554 19.6911C96.2413 19.6855 96.2261 19.6828 96.2109 19.6831C96.1793 19.6831 96.149 19.6957 96.1266 19.718C96.1042 19.7404 96.0917 19.7707 96.0917 19.8023C96.0917 19.834 96.1042 19.8643 96.1266 19.8866C96.149 19.909 96.1793 19.9216 96.2109 19.9216C96.227 19.9219 96.2429 19.919 96.2578 19.9128C96.2726 19.9066 96.286 19.8973 96.297 19.8856C96.308 19.8739 96.3164 19.86 96.3217 19.8449C96.327 19.8297 96.3291 19.8136 96.3277 19.7976ZM96.3277 20.4819C96.3277 20.4666 96.3247 20.4515 96.3188 20.4375C96.3129 20.4235 96.3042 20.4107 96.2934 20.4001C96.2825 20.3894 96.2696 20.381 96.2554 20.3754C96.2413 20.3698 96.2261 20.3671 96.2109 20.3674C96.1961 20.3674 96.1814 20.3704 96.1678 20.3762C96.1542 20.382 96.1419 20.3905 96.1316 20.4012C96.1214 20.4119 96.1134 20.4246 96.1082 20.4384C96.1029 20.4523 96.1006 20.4671 96.1012 20.4819C96.1006 20.4968 96.1029 20.5117 96.1081 20.5257C96.1133 20.5396 96.1213 20.5525 96.1315 20.5633C96.1417 20.5742 96.154 20.583 96.1676 20.589C96.1813 20.5951 96.196 20.5984 96.2109 20.5987C96.2263 20.599 96.2417 20.5962 96.256 20.5905C96.2703 20.5847 96.2833 20.5761 96.2942 20.5652C96.3051 20.5543 96.3137 20.5413 96.3195 20.5269C96.3252 20.5126 96.328 20.4973 96.3277 20.4819Z" fill="#263238"/>
<path d="M98.5859 23.973C98.587 23.8913 98.5713 23.8103 98.5399 23.7349C98.5085 23.6596 98.462 23.5914 98.4032 23.5347C98.3445 23.4779 98.2748 23.4338 98.1983 23.4051C98.1219 23.3763 98.0404 23.3635 97.9588 23.3674C97.875 23.364 97.7913 23.3786 97.7136 23.4102C97.6358 23.4419 97.5658 23.4899 97.5082 23.551L97.6179 23.6583C97.6696 23.6015 97.7348 23.5586 97.8074 23.5334C97.88 23.5083 97.9578 23.5017 98.0336 23.5144C98.1094 23.527 98.1808 23.5584 98.2413 23.6057C98.3019 23.653 98.3496 23.7148 98.3802 23.7853C98.4107 23.8558 98.4231 23.9328 98.4163 24.0093C98.4094 24.0859 98.3835 24.1595 98.3409 24.2234C98.2983 24.2874 98.2404 24.3396 98.1724 24.3754C98.1044 24.4112 98.0285 24.4294 97.9517 24.4284C97.889 24.4297 97.8269 24.4177 97.7693 24.393C97.7117 24.3683 97.6601 24.3316 97.6179 24.2853L97.5082 24.3926C97.566 24.4542 97.6364 24.5026 97.7146 24.5347C97.7927 24.5668 97.8768 24.5817 97.9612 24.5786C98.0426 24.5822 98.1238 24.5691 98.2 24.5402C98.2761 24.5112 98.3456 24.4671 98.404 24.4104C98.4625 24.3537 98.5088 24.2857 98.5401 24.2104C98.5714 24.1352 98.5869 24.0544 98.5859 23.973Z" fill="#263238"/>
<path d="M97.4139 24.1225C97.4154 24.0604 97.4039 23.9988 97.3801 23.9414C97.3564 23.8841 97.321 23.8323 97.2761 23.7894C97.2312 23.7466 97.1778 23.7135 97.1195 23.6925C97.0611 23.6714 96.9989 23.6628 96.937 23.6671C96.8646 23.6626 96.7924 23.6781 96.7281 23.7117C96.6638 23.7453 96.6099 23.7958 96.5722 23.8578L96.6938 23.9365C96.7194 23.8966 96.7546 23.8638 96.7964 23.8413C96.8381 23.8187 96.8849 23.8072 96.9323 23.8078C97.0113 23.8146 97.0849 23.8509 97.1385 23.9094C97.1921 23.9679 97.2219 24.0443 97.2219 24.1237C97.2219 24.203 97.1921 24.2795 97.1385 24.338C97.0849 24.3965 97.0113 24.4327 96.9323 24.4396C96.8849 24.4402 96.8381 24.4286 96.7964 24.4061C96.7546 24.3836 96.7194 24.3508 96.6938 24.3109L96.5722 24.3895C96.6096 24.452 96.6633 24.503 96.7277 24.5371C96.792 24.5711 96.8644 24.5869 96.937 24.5827C96.9993 24.5867 97.0617 24.5776 97.1202 24.5562C97.1788 24.5347 97.2322 24.5012 97.2771 24.4579C97.322 24.4146 97.3573 24.3624 97.3809 24.3046C97.4044 24.2469 97.4157 24.1848 97.4139 24.1225Z" fill="#263238"/>
<path d="M95.9843 23.7819C95.9847 23.7668 95.9819 23.7518 95.9763 23.7378C95.9707 23.7237 95.9622 23.711 95.9516 23.7003C95.9409 23.6896 95.9281 23.6812 95.9141 23.6756C95.9 23.6699 95.885 23.6672 95.8699 23.6675C95.855 23.6675 95.8402 23.6705 95.8265 23.6763C95.8127 23.682 95.8002 23.6905 95.7898 23.7012C95.7794 23.7118 95.7712 23.7245 95.7657 23.7383C95.7602 23.7522 95.7575 23.767 95.7578 23.7819C95.7572 23.7971 95.7596 23.8121 95.765 23.8263C95.7703 23.8405 95.7785 23.8534 95.7889 23.8643C95.7994 23.8752 95.812 23.8839 95.8259 23.8898C95.8398 23.8957 95.8548 23.8988 95.8699 23.8988C95.8851 23.8988 95.9002 23.8957 95.9143 23.8898C95.9283 23.8839 95.941 23.8753 95.9517 23.8644C95.9623 23.8535 95.9707 23.8406 95.9763 23.8265C95.9819 23.8123 95.9847 23.7972 95.9843 23.7819ZM95.9843 24.4662C95.9847 24.4511 95.9819 24.4361 95.9763 24.4221C95.9707 24.408 95.9622 24.3953 95.9516 24.3846C95.9409 24.3739 95.9281 24.3655 95.9141 24.3598C95.9 24.3542 95.885 24.3515 95.8699 24.3518C95.8549 24.3514 95.84 24.3542 95.8261 24.3599C95.8122 24.3655 95.7996 24.374 95.789 24.3847C95.7785 24.3954 95.7704 24.4082 95.765 24.4222C95.7596 24.4363 95.7572 24.4512 95.7578 24.4662C95.7572 24.4813 95.7596 24.4964 95.765 24.5106C95.7703 24.5247 95.7785 24.5377 95.7889 24.5486C95.7994 24.5595 95.812 24.5682 95.8259 24.5741C95.8398 24.58 95.8548 24.5831 95.8699 24.5831C95.8851 24.5831 95.9002 24.58 95.9143 24.5741C95.9283 24.5682 95.941 24.5596 95.9517 24.5487C95.9623 24.5378 95.9707 24.5249 95.9763 24.5108C95.9819 24.4966 95.9847 24.4815 95.9843 24.4662Z" fill="#263238"/>
<path d="M98.7656 28.4723L98.7036 28.3412C98.5929 28.4303 98.4547 28.4783 98.3126 28.4771C98.1076 28.4771 98.0194 28.3984 98.0194 28.2959C98.0194 28.005 98.7346 28.1886 98.7346 27.7499C98.7346 27.5663 98.5916 27.4113 98.2816 27.4113C98.1469 27.4081 98.0143 27.4446 97.9001 27.5162L97.9574 27.6498C98.0545 27.5885 98.1668 27.5555 98.2816 27.5544C98.4819 27.5544 98.5677 27.6378 98.5677 27.7427C98.5677 28.0312 97.8525 27.85 97.8525 28.284C97.8525 28.4652 97.9979 28.6225 98.3102 28.6225C98.475 28.6276 98.6362 28.5744 98.7656 28.4723Z" fill="#263238"/>
<path d="M96.7943 27.7109V28.6074H96.9469V28.4715C96.9824 28.5184 97.0287 28.5561 97.0818 28.5814C97.1349 28.6068 97.1933 28.6189 97.2521 28.617C97.3046 28.6223 97.3575 28.6158 97.4071 28.5979C97.4568 28.5801 97.5017 28.5514 97.5388 28.5139C97.5758 28.4764 97.604 28.431 97.6213 28.3812C97.6385 28.3314 97.6443 28.2783 97.6384 28.2259V27.7109H97.4762V28.2092C97.4762 28.3833 97.388 28.4715 97.2378 28.4715C97.1988 28.4744 97.1596 28.4685 97.1231 28.4542C97.0866 28.44 97.0538 28.4178 97.0271 28.3892C97.0003 28.3606 96.9803 28.3264 96.9685 28.2891C96.9567 28.2517 96.9534 28.2123 96.9588 28.1735V27.7109H96.7943Z" fill="#263238"/>
<path d="M95.5593 28.1588C95.5563 28.2194 95.5659 28.2798 95.5875 28.3364C95.6091 28.393 95.6423 28.4445 95.6849 28.4876C95.7275 28.5306 95.7787 28.5643 95.835 28.5866C95.8914 28.6088 95.9518 28.619 96.0123 28.6166C96.074 28.6193 96.1354 28.6068 96.1911 28.5802C96.2468 28.5536 96.2951 28.5137 96.3318 28.464V28.6071H96.4844V27.3506H96.3199V27.8465C96.283 27.7993 96.2355 27.7615 96.1812 27.7363C96.1269 27.711 96.0674 27.6989 96.0075 27.7011C95.9474 27.6994 95.8875 27.7101 95.8317 27.7326C95.7759 27.7551 95.7254 27.789 95.6833 27.832C95.6412 27.8749 95.6085 27.9262 95.5871 27.9824C95.5658 28.0387 95.5563 28.0988 95.5593 28.1588ZM95.7238 28.1588C95.7266 28.0997 95.7467 28.0426 95.7816 27.9947C95.8166 27.9468 95.8648 27.9102 95.9203 27.8895C95.9758 27.8688 96.0362 27.8648 96.094 27.878C96.1517 27.8913 96.2043 27.9212 96.2453 27.964C96.2862 28.0069 96.3136 28.0608 96.3242 28.1191C96.3348 28.1775 96.328 28.2376 96.3047 28.2921C96.2814 28.3466 96.2427 28.3931 96.1932 28.4258C96.1438 28.4584 96.0859 28.4759 96.0266 28.476C95.9853 28.4771 95.9442 28.4695 95.906 28.4538C95.8678 28.438 95.8334 28.4145 95.8048 28.3846C95.7763 28.3547 95.7544 28.3192 95.7404 28.2803C95.7264 28.2414 95.7208 28.2 95.7238 28.1588Z" fill="#263238"/>
<path d="M95.6406 28.8905L95.5882 28.7665C95.5502 28.7943 95.5041 28.8086 95.457 28.807C95.3688 28.807 95.3235 28.7546 95.3235 28.6497V27.7103H95.159V28.6473C95.1543 28.6865 95.1584 28.7263 95.1709 28.7638C95.1834 28.8013 95.2041 28.8355 95.2315 28.864C95.2589 28.8926 95.2922 28.9146 95.3292 28.9287C95.3661 28.9428 95.4057 28.9484 95.4451 28.9453C95.5146 28.9493 95.5834 28.93 95.6406 28.8905ZM95.3521 27.4337C95.3521 27.4194 95.3493 27.4053 95.3437 27.3921C95.3382 27.3789 95.3301 27.367 95.3199 27.357C95.3096 27.347 95.2975 27.3391 95.2842 27.3339C95.271 27.3286 95.2567 27.3261 95.2425 27.3264C95.2283 27.3254 95.2141 27.3274 95.2007 27.332C95.1873 27.3367 95.1749 27.3441 95.1645 27.3537C95.154 27.3633 95.1456 27.3749 95.1397 27.3878C95.1339 27.4008 95.1307 27.4147 95.1304 27.4289C95.1301 27.4436 95.1327 27.4583 95.1383 27.4719C95.1438 27.4855 95.1521 27.4978 95.1626 27.5081C95.1731 27.5184 95.1856 27.5264 95.1994 27.5317C95.2131 27.5369 95.2278 27.5393 95.2425 27.5386C95.2565 27.5389 95.2706 27.5365 95.2837 27.5314C95.2968 27.5263 95.3088 27.5186 95.319 27.5089C95.3292 27.4991 95.3374 27.4875 95.3431 27.4746C95.3487 27.4617 95.3518 27.4478 95.3521 27.4337Z" fill="#263238"/>
<path d="M94.0455 28.214H94.7751C94.7643 28.2911 94.7246 28.3613 94.6638 28.41C94.6031 28.4588 94.526 28.4825 94.4484 28.4763C94.4 28.4782 94.3518 28.4694 94.3073 28.4504C94.2628 28.4314 94.223 28.4028 94.1909 28.3666L94.1003 28.4715C94.1665 28.539 94.2508 28.5859 94.3431 28.6064C94.4354 28.6269 94.5317 28.6203 94.6202 28.5872C94.7088 28.5542 94.7859 28.4961 94.8421 28.4202C94.8984 28.3442 94.9314 28.2535 94.9372 28.1591C94.9395 28.099 94.9294 28.0391 94.9077 27.983C94.886 27.9269 94.853 27.8758 94.8108 27.8329C94.7685 27.79 94.718 27.7562 94.6623 27.7336C94.6065 27.711 94.5467 27.7 94.4866 27.7014C94.4262 27.6995 94.3661 27.7104 94.3102 27.7333C94.2543 27.7561 94.2038 27.7905 94.162 27.8341C94.1202 27.8777 94.088 27.9295 94.0675 27.9864C94.047 28.0432 94.0387 28.1037 94.0431 28.1639C94.0431 28.1782 94.0455 28.1973 94.0455 28.214ZM94.7751 28.0972H94.1981C94.2071 28.027 94.2414 27.9626 94.2945 27.9159C94.3476 27.8692 94.4158 27.8434 94.4866 27.8434C94.5573 27.8434 94.6256 27.8692 94.6787 27.9159C94.7317 27.9626 94.766 28.027 94.7751 28.0972Z" fill="#263238"/>
<path d="M93.9139 28.1594C93.9154 28.0972 93.9039 28.0355 93.8802 27.978C93.8565 27.9205 93.8211 27.8686 93.7762 27.8256C93.7314 27.7825 93.6781 27.7493 93.6197 27.7279C93.5613 27.7066 93.4991 27.6976 93.4371 27.7016C93.3645 27.6977 93.2922 27.7135 93.2279 27.7476C93.1636 27.7816 93.1098 27.8325 93.0723 27.8947L93.1963 27.9734C93.2218 27.9335 93.2571 27.9007 93.2988 27.8781C93.3405 27.8556 93.3873 27.8441 93.4347 27.8447C93.5138 27.8515 93.5874 27.8878 93.641 27.9463C93.6946 28.0048 93.7243 28.0812 93.7243 28.1606C93.7243 28.2399 93.6946 28.3164 93.641 28.3749C93.5874 28.4334 93.5138 28.4696 93.4347 28.4765C93.3873 28.4771 93.3405 28.4655 93.2988 28.443C93.2571 28.4205 93.2218 28.3877 93.1963 28.3477L93.0723 28.424C93.1098 28.4863 93.1636 28.5372 93.2279 28.5712C93.2922 28.6052 93.3645 28.6211 93.4371 28.6172C93.4991 28.6211 93.5613 28.6122 93.6197 28.5908C93.6781 28.5695 93.7314 28.5362 93.7762 28.4932C93.8211 28.4501 93.8565 28.3982 93.8802 28.3408C93.9039 28.2833 93.9154 28.2215 93.9139 28.1594Z" fill="#263238"/>
<path d="M92.3369 28.5547C92.393 28.5973 92.4621 28.6192 92.5324 28.6167C92.5706 28.6212 92.6093 28.6171 92.6456 28.6046C92.6819 28.5921 92.7149 28.5715 92.7422 28.5445C92.7695 28.5174 92.7903 28.4846 92.8031 28.4484C92.8159 28.4121 92.8204 28.3735 92.8162 28.3353V27.8442H92.9688V27.7106H92.8162V27.5151H92.654V27.7106H92.3965V27.8442H92.654V28.321C92.657 28.3406 92.6555 28.3606 92.6496 28.3795C92.6437 28.3984 92.6336 28.4157 92.6201 28.4302C92.6065 28.4446 92.5899 28.4558 92.5714 28.4629C92.5529 28.4701 92.5331 28.4729 92.5134 28.4712C92.4677 28.4709 92.4234 28.4558 92.387 28.4283L92.3369 28.5547Z" fill="#263238"/>
<path d="M91.7654 27.8185C91.7657 27.8033 91.763 27.7881 91.7574 27.774C91.7518 27.7598 91.7434 27.7469 91.7327 27.736C91.7221 27.7251 91.7094 27.7165 91.6953 27.7106C91.6813 27.7047 91.6662 27.7017 91.651 27.7017C91.6358 27.7016 91.6209 27.7047 91.6069 27.7106C91.593 27.7166 91.5805 27.7252 91.57 27.7361C91.5595 27.7471 91.5514 27.76 91.546 27.7741C91.5407 27.7883 91.5383 27.8034 91.5389 27.8185C91.5383 27.8336 91.5407 27.8487 91.546 27.8628C91.5514 27.877 91.5595 27.8899 91.57 27.9008C91.5805 27.9117 91.593 27.9204 91.6069 27.9264C91.6209 27.9323 91.6358 27.9353 91.651 27.9353C91.6662 27.9353 91.6813 27.9323 91.6953 27.9264C91.7094 27.9205 91.7221 27.9118 91.7327 27.901C91.7434 27.8901 91.7518 27.8772 91.7574 27.863C91.763 27.8489 91.7657 27.8337 91.7654 27.8185ZM91.7654 28.5004C91.7657 28.4853 91.763 28.4702 91.7574 28.4562C91.7517 28.4422 91.7433 28.4294 91.7326 28.4187C91.7219 28.408 91.7092 28.3996 91.6951 28.394C91.6811 28.3884 91.6661 28.3856 91.651 28.3859C91.6193 28.3859 91.589 28.3985 91.5667 28.4209C91.5443 28.4432 91.5317 28.4735 91.5317 28.5052C91.5317 28.5368 91.5443 28.5671 91.5667 28.5895C91.589 28.6118 91.6193 28.6244 91.651 28.6244C91.6666 28.6244 91.6821 28.6212 91.6965 28.615C91.7108 28.6088 91.7238 28.5998 91.7345 28.5884C91.7452 28.577 91.7535 28.5635 91.7588 28.5488C91.7641 28.534 91.7664 28.5184 91.7654 28.5028V28.5004Z" fill="#263238"/>
<path d="M76.9198 20.3779C76.9198 20.4113 80.7151 20.4399 85.3974 20.4399C90.0796 20.4399 93.875 20.4113 93.875 20.3779C93.875 20.3445 90.0796 20.3159 85.3974 20.3159C80.7151 20.3159 76.9198 20.3421 76.9198 20.3779Z" fill="#263238"/>
<path d="M69.3481 24.2431C69.3481 24.2789 74.8313 24.3051 81.6115 24.3051C88.3917 24.3051 93.875 24.2789 93.875 24.2431C93.875 24.2074 88.3917 24.1812 81.6115 24.1812C74.8313 24.1812 69.3481 24.2098 69.3481 24.2431Z" fill="#263238"/>
<path d="M78.4221 28.0847C78.4593 28.0883 78.4968 28.0883 78.5341 28.0847H78.8583L80.0504 28.1038C81.054 28.1038 82.4344 28.1229 83.9649 28.1229C85.4955 28.1229 86.8782 28.1229 87.8795 28.1038L89.0715 28.0847H89.3934C89.4314 28.0881 89.4697 28.0881 89.5078 28.0847C89.4706 28.0741 89.432 28.0693 89.3934 28.0704H89.0715L87.8795 28.0514C86.8782 28.0514 85.4955 28.0347 83.9649 28.0347C82.4344 28.0347 81.054 28.0347 80.0504 28.0514L78.8583 28.0704H78.5341C78.4962 28.0691 78.4584 28.0739 78.4221 28.0847Z" fill="#263238"/>
<path d="M41.6212 30.1709C41.6212 30.2042 54.7763 30.2329 70.9996 30.2329C87.2229 30.2329 100.383 30.2066 100.383 30.1709C100.383 30.1351 87.2301 30.1089 70.9996 30.1089C54.7691 30.1089 41.6212 30.1375 41.6212 30.1709Z" fill="#E0E0E0"/>
<path d="M41.6153 25.9843C41.6153 26.0201 54.7752 26.0463 71.0057 26.0463C87.2362 26.0463 100.398 26.0201 100.398 25.9843C100.398 25.9486 87.241 25.9224 71.0057 25.9224C54.7704 25.9224 41.6153 25.951 41.6153 25.9843Z" fill="#E0E0E0"/>
<path d="M41.6212 22.3037C41.6212 22.3371 54.7763 22.3657 70.9996 22.3657C87.2229 22.3657 100.383 22.3442 100.383 22.3037C100.383 22.2632 87.2301 22.2417 70.9996 22.2417C54.7691 22.2417 41.6212 22.2775 41.6212 22.3037Z" fill="#E0E0E0"/>
<path d="M92.4825 35.2799C93.1537 35.3413 93.8281 35.362 94.5018 35.3419C95.1763 35.3619 95.8514 35.3412 96.5234 35.2799C95.8514 35.2185 95.1763 35.1978 94.5018 35.2179C93.8281 35.1978 93.1537 35.2185 92.4825 35.2799Z" fill="#263238"/>
<path d="M69.4783 37.6192C69.4783 37.6526 75.5957 37.6812 83.1364 37.6812C90.6771 37.6812 96.7969 37.6526 96.7969 37.6192C96.7969 37.5859 90.6818 37.562 83.1316 37.562C75.5814 37.562 69.4783 37.5859 69.4783 37.6192Z" fill="#263238"/>
<path d="M74.0103 39.2541C74.0103 39.2827 79.1121 39.3066 85.4036 39.3066C91.695 39.3066 96.7969 39.2827 96.7969 39.2541C96.7969 39.2255 91.6974 39.2017 85.4036 39.2017C79.1097 39.2017 74.0103 39.2303 74.0103 39.2541Z" fill="#263238"/>
<path d="M98.7086 16.3177C98.5045 16.3177 98.339 16.1523 98.339 15.9482C98.339 15.7441 98.5045 15.5786 98.7086 15.5786C98.9127 15.5786 99.0781 15.7441 99.0781 15.9482C99.0781 16.1523 98.9127 16.3177 98.7086 16.3177Z" fill="white"/>
<path d="M97.4039 16.3177C97.1998 16.3177 97.0343 16.1523 97.0343 15.9482C97.0343 15.7441 97.1998 15.5786 97.4039 15.5786C97.608 15.5786 97.7734 15.7441 97.7734 15.9482C97.7734 16.1523 97.608 16.3177 97.4039 16.3177Z" fill="white"/>
<path d="M96.0836 16.3177C95.8795 16.3177 95.714 16.1523 95.714 15.9482C95.714 15.7441 95.8795 15.5786 96.0836 15.5786C96.2877 15.5786 96.4531 15.7441 96.4531 15.9482C96.4531 16.1523 96.2877 16.3177 96.0836 16.3177Z" fill="white"/>
<path d="M40.7352 57.4204C40.7352 57.0055 40.7567 40.427 40.7853 14.2431L40.7352 14.2932L100.372 14.3051L100.31 14.2431C100.31 29.7227 100.31 44.4035 100.31 57.4204L100.367 57.3655L40.7257 57.4204L100.367 57.4776H100.422V57.4204C100.422 44.4035 100.422 29.7227 100.422 14.2431V14.1812H100.355H40.7185H40.6685V14.2312C40.7162 40.4222 40.7352 57.0055 40.7352 57.4204Z" fill="#263238"/>
<path d="M22.4657 100.769H23.8438V101.51H22.4657V100.769Z" fill="#E0E0E0"/>
<path d="M22.9423 82.082H26.125V97.8667H22.9423V82.082Z" fill="#EBEBEB"/>
<path d="M17.3013 82.9142H32.2397C33.0028 82.9142 33.7347 82.611 34.2744 82.0714C34.814 81.5317 35.1172 80.7998 35.1172 80.0367C35.1175 79.6586 35.0433 79.2841 34.8988 78.9347C34.7544 78.5853 34.5425 78.2678 34.2752 78.0004C34.008 77.7329 33.6907 77.5208 33.3414 77.376C32.9921 77.2312 32.6177 77.1567 32.2397 77.1567H17.3013C16.9232 77.1567 16.5488 77.2312 16.1996 77.376C15.8503 77.5208 15.533 77.7329 15.2657 78.0004C14.9985 78.2678 14.7866 78.5853 14.6421 78.9347C14.4977 79.2841 14.4235 79.6586 14.4238 80.0367C14.4238 80.4145 14.4982 80.7887 14.6428 81.1378C14.7874 81.487 14.9994 81.8042 15.2666 82.0714C15.5338 82.3386 15.851 82.5505 16.2001 82.6951C16.5492 82.8398 16.9234 82.9142 17.3013 82.9142Z" fill="#455A64"/>
<path d="M23.5065 97.8672H25.5234V109.072H23.5065V97.8672Z" fill="#E0E0E0"/>
<path d="M32.6105 114.534C33.0063 114.584 15.6148 114.534 15.6148 114.534C15.6148 114.534 23.0339 113.704 23.5131 109.072H25.53C25.53 109.072 26.0378 113.697 32.6105 114.534Z" fill="#E0E0E0"/>
<path d="M16.7112 82.9135C16.7112 82.9469 20.1656 82.9755 24.4259 82.9755C28.6862 82.9755 32.1406 82.9469 32.1406 82.9135C32.1406 82.8802 28.6862 82.8516 24.4259 82.8516C20.1656 82.8516 16.7112 82.8802 16.7112 82.9135Z" fill="#263238"/>
<path d="M22.9392 97.8764C24.0074 97.959 25.0803 97.959 26.1484 97.8764C25.0795 97.7938 24.0058 97.7938 22.9368 97.8764H22.9392Z" fill="#263238"/>
<path d="M22.4595 102.339C22.5672 102.339 22.6705 102.297 22.7469 102.221C22.8233 102.145 22.8666 102.042 22.8672 101.934V100.344C22.8666 100.236 22.8234 100.132 22.7471 100.056C22.6708 99.9798 22.5674 99.9367 22.4595 99.936C22.3515 99.9367 22.2482 99.9798 22.1719 100.056C22.0956 100.132 22.0524 100.236 22.0518 100.344V101.929C22.0515 101.983 22.0618 102.036 22.0821 102.086C22.1025 102.136 22.1325 102.181 22.1703 102.219C22.2082 102.257 22.2533 102.287 22.3029 102.308C22.3525 102.329 22.4057 102.339 22.4595 102.339Z" fill="#E0E0E0"/>
<path d="M54.25 37.0127C54.25 37.0127 53.5515 36.2475 53.3393 36.2308C53.1271 36.2141 50.9553 36.8649 50.9553 36.8649C50.7034 36.9127 50.4684 37.0252 50.2734 37.1915C50.0779 37.43 47.9299 39.7544 47.9299 39.7544L50.314 41.8571C50.314 41.8571 53.1128 41.3541 53.356 41.0608C53.5992 40.7676 53.7946 40.2979 53.6158 40.1501C53.7363 39.944 53.7927 39.7066 53.778 39.4683C53.7388 39.3004 53.6902 39.1349 53.6325 38.9724C53.6325 38.9724 54.0545 38.6697 54.0712 38.4599C54.0763 38.3467 54.1039 38.2357 54.1523 38.1332L54.25 37.9711V37.0127Z" fill="#FFBE9D"/>
<path d="M53.2803 37.4676C53.2684 37.4676 53.2803 37.5415 53.3185 37.6488C53.3733 37.792 53.4645 37.9186 53.5831 38.0159C53.6456 38.0643 53.7178 38.0984 53.7948 38.1161C53.8717 38.1338 53.9516 38.1346 54.029 38.1185C54.1482 38.0875 54.1959 38.0231 54.1863 38.0159C54.1768 38.0088 54.1196 38.0398 54.017 38.0493C53.8828 38.0555 53.7505 38.0151 53.6427 37.9349C53.5373 37.846 53.4492 37.7385 53.3828 37.6178C53.3304 37.5224 53.2946 37.4628 53.2803 37.4676Z" fill="#EB996E"/>
<path d="M62.8345 32.0083C63.1792 32.0064 63.5105 32.141 63.7562 32.3827C64.0019 32.6244 64.142 32.9535 64.1457 33.2981L64.2578 47.6762C64.2597 48.0208 64.1251 48.3522 63.8834 48.5979C63.6418 48.8436 63.3127 48.9836 62.968 48.9874L52.5808 49.0685C52.2362 49.0704 51.9048 48.9358 51.6591 48.6941C51.4134 48.4524 51.2734 48.1233 51.2696 47.7787L51.2005 33.3934C51.1992 33.2183 51.2325 33.0447 51.2985 32.8825C51.3645 32.7203 51.4619 32.5728 51.585 32.4483C51.7082 32.3238 51.8547 32.2249 52.0161 32.1572C52.1776 32.0894 52.3509 32.0542 52.526 32.0536L62.8345 32.0083Z" fill="#E0E0E0"/>
<path d="M57.1469 36.3689C57.1469 36.4213 58.2221 36.4547 59.55 36.4452C60.8779 36.4356 61.9531 36.3832 61.9531 36.3307C61.9531 36.2783 60.8755 36.2449 59.5476 36.2568C58.2197 36.2687 57.1469 36.3236 57.1469 36.3689Z" fill="#E0E0E0"/>
<path d="M54.0663 38.2483C54.0663 38.3007 55.8401 38.3294 58.0238 38.3103C60.2076 38.2912 61.9766 38.2388 61.9766 38.1863C61.9766 38.1339 60.2052 38.1053 58.0215 38.1219C55.8377 38.1386 54.0663 38.1958 54.0663 38.2483Z" fill="#E0E0E0"/>
<path d="M53.3613 40.1642C53.3613 40.2167 55.2924 40.2429 57.674 40.2238C60.0557 40.2048 61.9844 40.1476 61.9844 40.0951C61.9844 40.0427 60.0533 40.0164 57.6717 40.0355C55.29 40.0546 53.3613 40.1118 53.3613 40.1642Z" fill="#E0E0E0"/>
<path d="M53.3848 41.9665C53.3848 42.0189 55.3158 42.0452 57.6951 42.0261C60.0744 42.007 62.0078 41.9498 62.0078 41.8974C62.0078 41.8449 60.0767 41.8187 57.6951 41.8378C55.3134 41.8568 53.3848 41.914 53.3848 41.9665Z" fill="#E0E0E0"/>
<path d="M53.4004 43.7595C53.4004 43.8119 55.3315 43.8381 57.7107 43.8191C60.09 43.8 62.0234 43.7428 62.0234 43.6903C62.0234 43.6379 60.0924 43.6117 57.7107 43.6307C55.3291 43.6498 53.4004 43.7165 53.4004 43.7595Z" fill="#E0E0E0"/>
<path d="M53.4106 45.5714C53.4106 45.6239 55.3416 45.6501 57.7209 45.631C60.1002 45.612 62.0336 45.5547 62.0312 45.5047C62.0289 45.4546 60.1026 45.4236 57.7209 45.4427C55.3393 45.4618 53.4106 45.519 53.4106 45.5714Z" fill="#E0E0E0"/>
<path d="M63.3189 31.5791C63.4895 31.5779 63.6587 31.6102 63.8169 31.6744C63.975 31.7385 64.1189 31.8332 64.2404 31.9529C64.362 32.0727 64.4587 32.2152 64.5252 32.3724C64.5916 32.5296 64.6265 32.6983 64.6277 32.8689L64.7422 47.247C64.7441 47.5916 64.6095 47.923 64.3678 48.1687C64.1261 48.4144 63.797 48.5544 63.4524 48.5582L53.0628 48.6393C52.8922 48.6405 52.723 48.6082 52.5648 48.544C52.4067 48.4799 52.2628 48.3852 52.1412 48.2655C52.0197 48.1457 51.9229 48.0032 51.8565 47.846C51.79 47.6889 51.7552 47.5201 51.754 47.3495L51.6824 32.9619C51.6812 32.6088 51.82 32.2697 52.0685 32.019C52.3171 31.7682 52.6549 31.6263 53.008 31.6244L63.3189 31.5791Z" fill="white"/>
<path d="M63.3209 31.5796C63.3209 31.5796 63.2685 31.5796 63.1708 31.5796H62.7345H61.0537H54.8719H53.3533C53.1751 31.5734 52.9967 31.579 52.8193 31.5963C52.6322 31.6221 52.4526 31.6865 52.2917 31.7854C52.1308 31.8843 51.9922 32.0156 51.8847 32.1708C51.771 32.3292 51.6937 32.5107 51.6583 32.7025C51.6326 32.8936 51.6246 33.0868 51.6344 33.2794C51.6344 34.8147 51.6463 36.4549 51.6535 38.1786C51.6606 39.9022 51.6678 41.7141 51.6773 43.5927C51.6773 44.5297 51.6773 45.4857 51.6893 46.4536C51.6893 46.692 51.6893 46.9304 51.6893 47.1855C51.6712 47.4399 51.7171 47.6948 51.8228 47.9269C51.9347 48.162 52.1116 48.3601 52.3326 48.4978C52.5535 48.6355 52.8093 48.7071 53.0696 48.7041L58.8843 48.6564L61.6474 48.6326H62.9872C63.21 48.6364 63.4328 48.6284 63.6547 48.6087C63.8798 48.5743 64.0919 48.4814 64.2698 48.3393C64.4452 48.2026 64.5846 48.0252 64.676 47.8225C64.7673 47.6198 64.808 47.3979 64.7943 47.1759C64.7943 46.754 64.7943 46.3391 64.7824 45.9315C64.7824 45.1137 64.7681 44.3199 64.7609 43.5474C64.7466 42.0121 64.7323 40.5841 64.7204 39.2776C64.6918 36.6719 64.6679 34.562 64.6512 33.0982C64.6576 32.9248 64.644 32.7512 64.6107 32.5809C64.5749 32.4312 64.5128 32.2891 64.4271 32.1613C64.2932 31.9608 64.1069 31.8008 63.8883 31.6988C63.7543 31.6376 63.6108 31.5998 63.464 31.5867C63.4148 31.583 63.3654 31.583 63.3162 31.5867C63.5103 31.5948 63.7009 31.6418 63.8764 31.725C64.0882 31.8274 64.2679 31.9856 64.3961 32.1828C64.478 32.3078 64.5362 32.4468 64.5678 32.5928C64.5985 32.7602 64.6105 32.9305 64.6036 33.1006C64.6036 34.5644 64.6202 36.6767 64.6322 39.2824C64.6322 40.5865 64.6489 42.0169 64.6584 43.5498C64.6584 44.3175 64.6584 45.1114 64.6727 45.9339C64.6727 46.3439 64.6727 46.7587 64.6727 47.1783C64.6864 47.3828 64.6501 47.5875 64.567 47.7748C64.484 47.9621 64.3566 48.1264 64.1959 48.2535C64.031 48.38 63.8365 48.462 63.6309 48.4919C63.4152 48.51 63.1988 48.5172 62.9824 48.5134H61.6426L58.8771 48.5325L53.0648 48.5777C52.8269 48.5805 52.5932 48.5145 52.3919 48.3876C52.1905 48.2608 52.0302 48.0784 51.93 47.8625C51.8323 47.6467 51.7897 47.4099 51.8061 47.1736C51.8061 46.9352 51.8061 46.6967 51.8061 46.444C51.8061 45.4761 51.8013 44.5225 51.7918 43.5832C51.7918 41.707 51.7703 39.8951 51.7608 38.1714C51.7512 36.4478 51.7393 34.8076 51.7298 33.2723C51.7211 33.0852 51.7283 32.8978 51.7512 32.712C51.7847 32.5354 51.8554 32.368 51.9587 32.2209C52.0586 32.0763 52.1872 31.9539 52.3365 31.8612C52.4858 31.7685 52.6526 31.7075 52.8264 31.6821C52.9933 31.6606 53.1721 31.6702 53.3462 31.6654H53.8635H54.8648L61.0466 31.6177L62.7273 31.5987H63.1636L63.3209 31.5796Z" fill="#263238"/>
<path d="M57.6391 35.9465C57.6391 35.9989 58.7167 36.0323 60.0446 36.0228C61.3725 36.0133 62.4453 35.9608 62.4453 35.9084C62.4453 35.8559 61.3701 35.8225 60.0422 35.8344C58.7143 35.8464 57.6391 35.8917 57.6391 35.9465Z" fill="#263238"/>
<path d="M54.5429 37.8191C54.5429 37.8715 56.3142 37.9002 58.498 37.8811C60.6818 37.862 62.4531 37.8096 62.4531 37.7571C62.4531 37.7047 60.6818 37.6761 58.4956 37.6927C56.3095 37.7094 54.5429 37.7666 54.5429 37.8191Z" fill="#263238"/>
<path d="M53.8457 39.7355C53.8457 39.788 55.7768 39.8142 58.1584 39.7951C60.5401 39.7761 62.4688 39.7188 62.4688 39.6664C62.4688 39.614 60.5377 39.5877 58.156 39.6068C55.7744 39.6259 53.8457 39.6831 53.8457 39.7355Z" fill="#263238"/>
<path d="M53.8613 41.5373C53.8613 41.5897 55.7924 41.616 58.174 41.5969C60.5557 41.5778 62.4844 41.5206 62.4844 41.4682C62.4844 41.4157 60.5533 41.3895 58.1717 41.4086C55.79 41.4276 53.8613 41.4848 53.8613 41.5373Z" fill="#263238"/>
<path d="M53.877 43.3391C53.877 43.3915 55.808 43.4177 58.1897 43.3987C60.5713 43.3796 62.5 43.3224 62.5 43.2699C62.5 43.2175 60.5689 43.1912 58.1873 43.2103C55.8056 43.2294 53.877 43.2818 53.877 43.3391Z" fill="#263238"/>
<path d="M53.8926 45.1422C53.8926 45.1947 55.8236 45.2209 58.2053 45.2018C60.5869 45.1828 62.5156 45.1255 62.5156 45.0755C62.5156 45.0254 60.5846 44.9944 58.2029 45.0135C55.8213 45.0326 53.8926 45.0898 53.8926 45.1422Z" fill="#263238"/>
<path d="M62.0143 34.2617C62.192 34.2617 62.3624 34.1911 62.4881 34.0655C62.6137 33.9398 62.6843 33.7694 62.6843 33.5917V31.9228C62.6843 31.8032 62.6368 31.6886 62.5523 31.6041C62.4678 31.5196 62.3532 31.4721 62.2337 31.4721C62.1142 31.4721 61.9995 31.5196 61.915 31.6041C61.8305 31.6886 61.7831 31.8032 61.7831 31.9228V33.1149C61.7809 33.1279 61.7816 33.1411 61.7852 33.1538C61.7887 33.1664 61.7949 33.1782 61.8034 33.1882C61.8119 33.1982 61.8225 33.2062 61.8344 33.2118C61.8463 33.2173 61.8593 33.2201 61.8725 33.2201C61.8856 33.2201 61.8986 33.2173 61.9105 33.2118C61.9224 33.2062 61.933 33.1982 61.9415 33.1882C61.95 33.1782 61.9562 33.1664 61.9598 33.1538C61.9633 33.1411 61.964 33.1279 61.9619 33.1149V31.9228C61.9619 31.8507 61.9905 31.7815 62.0415 31.7306C62.0925 31.6796 62.1616 31.651 62.2337 31.651C62.3058 31.651 62.3749 31.6796 62.4259 31.7306C62.4768 31.7815 62.5055 31.8507 62.5055 31.9228V33.5917C62.5055 33.722 62.4537 33.8469 62.3616 33.939C62.2695 34.0312 62.1446 34.0829 62.0143 34.0829C61.8841 34.0829 61.7591 34.0312 61.667 33.939C61.5749 33.8469 61.5232 33.722 61.5232 33.5917V31.6676C61.5188 31.4972 61.5754 31.3308 61.6828 31.1985C61.7902 31.0661 61.9414 30.9765 62.1091 30.9457C62.2768 30.9149 62.4499 30.945 62.5973 31.0306C62.7448 31.1162 62.8568 31.2517 62.9132 31.4125V31.4912C62.9167 31.5124 62.9276 31.5317 62.9439 31.5456C62.9603 31.5595 62.9811 31.5672 63.0026 31.5672C63.0241 31.5672 63.0449 31.5595 63.0613 31.5456C63.0776 31.5317 63.0885 31.5124 63.092 31.4912V31.3958C63.0943 31.3864 63.0943 31.3766 63.092 31.3672C63.0221 31.1669 62.8833 30.9978 62.7005 30.8901C62.5176 30.7824 62.3024 30.7431 62.0933 30.7791C61.8842 30.8152 61.6946 30.9243 61.5583 31.087C61.4221 31.2497 61.3479 31.4554 61.3491 31.6676V33.5917C61.3491 33.7686 61.419 33.9383 61.5437 34.0638C61.6683 34.1893 61.8375 34.2605 62.0143 34.2617Z" fill="#263238"/>
<path d="M49.327 38.662L50.4666 37.9468L53.3846 36.4067C53.3846 36.4067 53.9639 36.9694 52.9841 37.7799L51.7778 38.7336C51.7778 38.7336 50.705 40.7004 50.4761 40.8434C50.0579 41.041 49.6298 41.2168 49.1935 41.3703L49.327 38.662Z" fill="#FFBE9D"/>
<path d="M49.0821 41.4257C49.1222 41.423 49.1616 41.4142 49.1989 41.3995C49.2752 41.378 49.3873 41.347 49.5303 41.297C49.6734 41.2469 49.845 41.1873 50.0405 41.0991C50.1452 41.0536 50.2471 41.0019 50.3456 40.9441C50.4606 40.8793 50.5612 40.7917 50.6413 40.6867C51.0068 40.1749 51.3359 39.6379 51.6259 39.0798L51.7594 38.8414C51.8032 38.7663 51.8616 38.7007 51.931 38.6483C52.0669 38.5291 52.2195 38.4099 52.3697 38.2955C52.6934 38.0612 53.0031 37.808 53.2971 37.5373C53.4577 37.3881 53.562 37.1881 53.5924 36.971C53.6227 36.7539 53.5774 36.5329 53.464 36.3453L53.4401 36.3096L53.3996 36.3334C52.2338 36.9914 51.2277 37.5922 50.4672 37.945C50.0977 38.1477 49.8164 38.3288 49.6233 38.4504L49.4016 38.5959C49.3753 38.6127 49.3506 38.6319 49.3277 38.6531C49.3571 38.6431 49.3851 38.6295 49.4111 38.6125L49.6495 38.4814C49.8498 38.367 50.1382 38.193 50.5078 38.0046C51.2754 37.6685 52.291 37.0748 53.4568 36.4216L53.3948 36.4073C53.4943 36.569 53.5316 36.7613 53.4997 36.9485C53.468 37.1451 53.3754 37.3269 53.2351 37.4682C52.9429 37.7332 52.6374 37.9831 52.3196 38.2168C52.167 38.336 52.0169 38.4552 51.8762 38.5744C51.8403 38.6059 51.8061 38.6394 51.7737 38.6745C51.74 38.71 51.7104 38.7492 51.6855 38.7913C51.6426 38.8724 51.5973 38.9487 51.5544 39.0298C51.2721 39.5857 50.9535 40.1225 50.6007 40.6366C50.4482 40.8173 50.2533 40.9574 50.0333 41.0443C49.8426 41.1349 49.6733 41.2016 49.5327 41.2564L49.2109 41.3756C49.1669 41.3896 49.1239 41.4063 49.0821 41.4257Z" fill="#EB996E"/>
<path d="M17.6023 33.1122C17.6429 32.397 17.7311 28.9592 17.774 28.4347C17.8177 27.7183 18.1262 27.0436 18.6394 26.5418C19.1591 26.065 19.9673 25.8504 20.6038 26.1628C20.811 26.2154 21.0006 26.3219 21.1534 26.4713C21.3062 26.6208 21.4168 26.8079 21.474 27.0139C22.9235 32.1681 22.6946 37.6562 23.3359 42.9869C21.443 43.2944 18.8969 43.1681 16.9825 43.0679C16.9825 38.8124 17.3425 37.7086 17.6023 33.1122Z" fill="#263238"/>
<path d="M18.3998 40.3813C18.4106 40.336 18.4154 40.2895 18.4141 40.243C18.4141 40.1381 18.426 40.0046 18.4332 39.8472C18.4451 39.4872 18.4594 38.9937 18.4785 38.393C18.5047 37.1509 18.5405 35.4606 18.5786 33.5939C18.5929 32.6594 18.6072 31.7677 18.6191 30.9524C18.6191 30.5471 18.6191 30.1609 18.6334 29.8009C18.6269 29.4681 18.65 29.1354 18.7026 28.8068C18.7319 28.5702 18.8132 28.343 18.9406 28.1415C19.0679 27.94 19.2382 27.7691 19.4392 27.641C19.5937 27.558 19.763 27.5062 19.9375 27.4884H19.9041C19.8692 27.485 19.8341 27.485 19.7992 27.4884C19.6651 27.4996 19.5345 27.5377 19.4154 27.6004C19.227 27.7028 19.0641 27.8462 18.9386 28.02C18.775 28.2505 18.6643 28.5143 18.6144 28.7925C18.557 29.1255 18.5291 29.463 18.5309 29.8009C18.5309 30.1633 18.5142 30.5471 18.5047 30.9524C18.488 31.7677 18.4713 32.6594 18.4546 33.5963C18.4284 35.4606 18.407 37.1509 18.3903 38.393C18.3903 38.9961 18.3903 39.4872 18.3903 39.8496C18.3903 40.0093 18.3903 40.1405 18.3903 40.2454C18.388 40.2909 18.3912 40.3365 18.3998 40.3813Z" fill="#455A64"/>
<path d="M20.1307 38.4256C20.1482 38.3233 20.1554 38.2194 20.1521 38.1157C20.1521 37.9154 20.1641 37.6246 20.1641 37.267C20.1641 36.5517 20.1498 35.5647 20.1235 34.4752C20.0973 33.3857 20.0663 32.4226 20.0449 31.6812C20.0449 31.345 20.0258 31.0613 20.0163 30.8372C20.0181 30.7326 20.0101 30.628 19.9924 30.5249C19.9731 30.6278 19.9651 30.7326 19.9686 30.8372C19.9686 31.0375 19.9686 31.314 19.9567 31.6835C19.9567 32.3988 19.971 33.3857 19.9996 34.4776C20.0282 35.5695 20.0568 36.5279 20.0759 37.2693C20.0878 37.6055 20.0973 37.8892 20.1045 38.1157C20.1025 38.2196 20.1112 38.3235 20.1307 38.4256Z" fill="#455A64"/>
<path d="M26.4469 22.198C25.0165 22.0502 23.8245 22.6748 22.6945 23.5402C21.5627 24.4314 20.7307 25.6477 20.3104 27.0256C19.8599 28.4561 19.8527 30.4944 20.3653 31.9081C20.5946 32.5776 20.983 33.1813 21.4971 33.6676C22.0111 34.1539 22.6356 34.5081 23.3167 34.6998C25.2931 35.2577 27.5198 35.0312 29.0741 33.689C30.6285 32.3468 31.4272 30.2417 31.3724 28.189C31.3545 26.7623 30.8874 25.3775 30.0373 24.2316C29.6098 23.6658 29.0704 23.1942 28.4527 22.846C27.835 22.4978 27.1523 22.2804 26.4469 22.2075" fill="#263238"/>
<path d="M22.7658 27.2348C22.9374 26.6841 22.8182 26.0881 22.8612 25.5136C22.9589 24.2476 23.903 23.1772 25.0402 22.6098C26.0987 22.0853 27.4242 22.0972 28.7688 22.4358C29.6963 22.6513 30.5432 23.1268 31.21 23.8066C31.6359 24.2701 31.9446 24.8288 32.1105 25.436C32.2764 26.0431 32.2946 26.6812 32.1636 27.2968L25.6862 26.7819C25.1188 27.3183 24.5347 27.8642 23.8243 28.1885C23.6201 28.2952 23.3919 28.3477 23.1615 28.341C23.0471 28.3345 22.9368 28.2953 22.8439 28.2282C22.751 28.161 22.6792 28.0686 22.6371 27.962C22.5751 27.7212 22.6919 27.4732 22.7658 27.2348Z" fill="#263238"/>
<path d="M29.0097 24.2101L23.4859 25.7645C23.2258 25.7989 22.9881 25.9297 22.8199 26.131C22.6516 26.3324 22.5652 26.5896 22.5776 26.8516L23.4382 38.9697C23.496 39.7983 23.8263 40.5845 24.3775 41.2059L24.9569 41.852C26.2776 43.342 28.7356 43.0225 29.5509 41.2059C29.6004 41.102 29.6364 40.9923 29.6582 40.8793C29.6749 40.7878 29.6868 40.6955 29.6939 40.6027C29.7506 39.9893 29.7426 39.3716 29.6701 38.7599C29.6534 37.6775 29.6415 37.2341 29.6439 37.2436C29.6463 37.2532 31.9159 36.805 32.3116 33.8106C32.5071 32.323 32.3664 29.896 32.19 27.9125C32.0398 26.1174 30.7954 23.9717 29.0097 24.2101Z" fill="#FFBE9D"/>
<path d="M31.4919 30.2385C31.4958 30.3381 31.4606 30.4353 31.3937 30.5093C31.3269 30.5833 31.2338 30.6281 31.1343 30.6343C31.0858 30.6392 31.0369 30.6345 30.9903 30.6203C30.9437 30.6061 30.9004 30.5828 30.8629 30.5518C30.8254 30.5207 30.7945 30.4825 30.7719 30.4393C30.7493 30.3962 30.7355 30.349 30.7313 30.3005C30.7274 30.2009 30.7626 30.1037 30.8295 30.0297C30.8963 29.9557 30.9894 29.9109 31.089 29.9047C31.1374 29.8998 31.1863 29.9046 31.2329 29.9187C31.2795 29.9329 31.3228 29.9562 31.3603 29.9873C31.3978 30.0183 31.4288 30.0565 31.4513 30.0997C31.4739 30.1428 31.4877 30.19 31.4919 30.2385Z" fill="#263238"/>
<path d="M31.7058 29.1856C31.6605 29.2381 31.3649 29.0306 30.9524 29.0426C30.5399 29.0545 30.2371 29.281 30.199 29.219C30.1608 29.157 30.2228 29.1069 30.3516 29.0068C30.5267 28.8799 30.7362 28.8092 30.9524 28.8041C31.1663 28.7979 31.3767 28.8597 31.5532 28.9806C31.682 29.0736 31.7273 29.1642 31.7058 29.1856Z" fill="#263238"/>
<path d="M27.82 30.3879C27.8239 30.4875 27.7887 30.5847 27.7219 30.6587C27.655 30.7327 27.5619 30.7776 27.4624 30.7837C27.4139 30.789 27.3648 30.7844 27.3181 30.7704C27.2714 30.7564 27.2279 30.7331 27.1904 30.702C27.1528 30.6708 27.1219 30.6325 27.0994 30.5892C27.0769 30.5459 27.0633 30.4985 27.0594 30.4499C27.0561 30.3505 27.0916 30.2536 27.1583 30.1797C27.225 30.1059 27.3178 30.0609 27.4171 30.0541C27.4655 30.0492 27.5145 30.054 27.561 30.0681C27.6076 30.0823 27.6509 30.1056 27.6884 30.1367C27.7259 30.1677 27.7569 30.2059 27.7795 30.2491C27.8021 30.2922 27.8158 30.3394 27.82 30.3879Z" fill="#263238"/>
<path d="M27.8017 29.3413C27.7564 29.3938 27.4608 29.1864 27.0507 29.1983C26.6406 29.2102 26.3354 29.4367 26.2973 29.3747C26.2591 29.3127 26.3187 29.2627 26.4499 29.1625C26.6248 29.0353 26.8344 28.9646 27.0507 28.9599C27.2646 28.9539 27.4748 29.0157 27.6515 29.1363C27.7803 29.2293 27.816 29.3199 27.8017 29.3413Z" fill="#263238"/>
<path d="M29.247 32.3812C29.4621 32.3076 29.6856 32.2611 29.9122 32.2429C30.0171 32.2286 30.1149 32.2071 30.1316 32.1332C30.1384 32.025 30.1109 31.9173 30.0529 31.8256C29.948 31.5729 29.8383 31.3083 29.7215 31.0341C29.2589 29.9063 28.9228 28.9788 28.9681 28.9598C29.0134 28.9407 29.4258 29.8396 29.886 30.9673C29.9981 31.2463 30.1054 31.5109 30.2055 31.7637C30.2746 31.8885 30.2974 32.0337 30.2699 32.1737C30.2561 32.2113 30.2339 32.2453 30.205 32.273C30.176 32.3007 30.1411 32.3214 30.103 32.3335C30.0447 32.3501 29.9847 32.3597 29.9242 32.3621C29.7002 32.3973 29.4726 32.4037 29.247 32.3812Z" fill="#263238"/>
<path d="M29.6576 37.2388C28.2553 37.2996 26.8636 36.9694 25.6381 36.2852C25.6381 36.2852 26.6966 38.3211 29.6719 37.954L29.6576 37.2388Z" fill="#EB996E"/>
<path d="M29.0933 33.377C29.0132 33.2802 28.9094 33.2056 28.7921 33.1605C28.6747 33.1154 28.5478 33.1013 28.4234 33.1195C28.3329 33.1297 28.2454 33.1582 28.1663 33.2033C28.0872 33.2484 28.0181 33.3091 27.9632 33.3818C27.9097 33.4516 27.879 33.5362 27.8752 33.624C27.8713 33.7119 27.8946 33.7988 27.9418 33.873C28.01 33.9451 28.0981 33.9952 28.195 34.0168C28.2918 34.0385 28.3929 34.0307 28.4854 33.9946C28.6777 33.9209 28.8535 33.8099 29.0027 33.6679C29.0482 33.633 29.0869 33.5902 29.1172 33.5416C29.1325 33.5191 29.1406 33.4925 29.1406 33.4653C29.1406 33.4381 29.1325 33.4115 29.1172 33.389" fill="#EB996E"/>
<path d="M28.0354 32.6973C28.1021 32.6973 28.1141 33.1384 28.5122 33.4436C28.9104 33.7488 29.3753 33.682 29.3825 33.7511C29.3896 33.8203 29.2776 33.8417 29.0773 33.8513C28.8183 33.8582 28.5651 33.7738 28.362 33.6129C28.1626 33.46 28.0315 33.2347 27.9972 32.9858C27.9567 32.807 28.0044 32.6949 28.0354 32.6973Z" fill="#263238"/>
<path d="M27.7012 28.124C27.6654 28.2385 27.2529 28.1956 26.7713 28.2671C26.2897 28.3386 25.9034 28.4793 25.8367 28.3815C25.8081 28.3339 25.8724 28.2266 26.0274 28.1145C26.2323 27.9739 26.4676 27.884 26.7141 27.8522C26.9607 27.8167 27.2123 27.8395 27.4484 27.919C27.6273 27.9858 27.7179 28.0716 27.7012 28.124Z" fill="#263238"/>
<path d="M31.5372 27.391C31.4657 27.4864 31.1819 27.391 30.841 27.391C30.5 27.391 30.2115 27.4697 30.1448 27.3743C30.1138 27.3266 30.1567 27.2336 30.2807 27.1359C30.4454 27.023 30.6414 26.9646 30.841 26.969C31.0411 26.966 31.2372 27.026 31.4013 27.1406C31.5253 27.2503 31.5682 27.3457 31.5372 27.391Z" fill="#263238"/>
<path d="M21.6792 26.4373C22.156 24.6946 24.5401 22.2032 26.3376 22.2462L29.2891 23.8411C29.2179 24.3355 29.0144 24.8015 28.7 25.1897C28.3857 25.5779 27.9722 25.8739 27.5034 26.0463C27.0028 26.2251 26.3925 26.2847 26.1111 26.7472C25.8298 27.2097 26.0325 27.8486 25.7655 28.3207C25.3983 28.9763 24.3088 28.9954 24.0418 29.701C23.925 30.0062 24.0084 30.3638 23.8868 30.6689C23.7223 31.0766 22.7377 31.6226 22.3158 31.5129C21.8938 31.4032 21.858 30.6904 21.7055 30.3209C21.5147 29.9093 21.4718 29.4445 21.5839 29.0049C21.7269 28.1562 21.4551 27.2693 21.6792 26.4373Z" fill="#263238"/>
<path d="M23.5653 31.8081C23.5653 31.5864 23.2864 31.0714 23.067 31.0428C22.4805 30.9665 21.4267 31.0428 21.4553 32.5281C21.4958 34.5595 23.5272 34.0994 23.5296 34.0421C23.532 33.9849 23.5868 32.5758 23.5653 31.8081Z" fill="#FFBE9D"/>
<path d="M22.8966 33.285C22.8966 33.285 22.8608 33.3112 22.8012 33.3398C22.7178 33.3775 22.6231 33.3818 22.5366 33.3517C22.3196 33.2754 22.1336 32.9393 22.1169 32.5721C22.1082 32.3983 22.1383 32.2248 22.2052 32.0642C22.2228 32.0005 22.2557 31.942 22.301 31.8939C22.3462 31.8457 22.4025 31.8092 22.465 31.7877C22.5057 31.7754 22.5494 31.7781 22.5882 31.7951C22.6271 31.8122 22.6587 31.8425 22.6772 31.8806C22.7059 31.9355 22.6939 31.976 22.7035 31.9808C22.713 31.9855 22.7464 31.945 22.7297 31.8616C22.7163 31.8115 22.6871 31.7671 22.6462 31.7352C22.5889 31.6943 22.518 31.6772 22.4484 31.6875C22.3657 31.7063 22.2892 31.7457 22.2258 31.8019C22.1625 31.8582 22.1144 31.9296 22.0859 32.0094C22.0022 32.1872 21.9637 32.383 21.9739 32.5792C21.9953 32.9893 22.2123 33.3684 22.508 33.4471C22.5627 33.4613 22.6199 33.4634 22.6755 33.4531C22.7311 33.4428 22.7838 33.4204 22.8298 33.3875C22.8918 33.335 22.9037 33.2897 22.8966 33.285Z" fill="#EB996E"/>
<path d="M20.0182 29.2545C19.9462 29.0614 19.9075 28.8575 19.9037 28.6514C19.8276 27.6504 20.0923 26.6531 20.6547 25.8215C20.7595 25.6412 20.8941 25.48 21.0528 25.3447C21.0934 25.3686 20.4568 26.0862 20.1708 27.1971C19.8847 28.3081 20.0635 29.2522 20.0182 29.2545Z" fill="#B8DFF3"/>
<path d="M28.6647 23.2564C28.9031 24.0694 30.2286 25.0444 30.8103 25.6404C31.9403 26.7967 32.1501 26.966 32.3766 30.6469C32.8481 29.4655 33.0564 28.1955 32.9869 26.9254C32.8892 25.8598 32.409 24.8656 31.6352 24.1266C31.2419 23.7603 30.7686 23.491 30.2529 23.3399C29.7372 23.1888 29.1934 23.1602 28.6647 23.2564Z" fill="#263238"/>
<path d="M20.6389 26.4766C20.7534 26.5095 20.8708 26.531 20.9894 26.541C21.1015 26.5577 21.2397 26.5767 21.4042 26.5863C21.5687 26.5958 21.7499 26.6149 21.9549 26.6125C22.433 26.6218 22.9112 26.5955 23.3854 26.5338C23.9693 26.4549 24.5458 26.3282 25.109 26.1548C25.6695 25.9743 26.2148 25.7494 26.7397 25.4825C27.166 25.2599 27.5756 25.0065 27.9651 24.7243C28.1343 24.6099 28.275 24.4859 28.4014 24.3882C28.5277 24.2905 28.6398 24.1927 28.716 24.114C28.8071 24.0369 28.8916 23.9524 28.9688 23.8613C28.8679 23.9251 28.773 23.9977 28.6851 24.0783C28.5992 24.1522 28.4919 24.2404 28.3608 24.3334C28.2297 24.4263 28.0867 24.5455 27.915 24.6552C27.5222 24.9208 27.112 25.1598 26.6872 25.3704C26.1666 25.6301 25.6271 25.8501 25.0732 26.0284C24.5158 26.1972 23.947 26.3255 23.371 26.4122C22.897 26.478 22.4192 26.5122 21.9406 26.5148C21.738 26.5148 21.5544 26.5148 21.3923 26.5148C21.2302 26.5148 21.0919 26.5028 20.9799 26.4909C20.8668 26.4769 20.7528 26.4721 20.6389 26.4766Z" fill="#455A64"/>
<path d="M20.5284 27.9459C20.6061 27.9685 20.6861 27.9821 20.7668 27.9864C20.986 28.0123 21.2065 28.0258 21.4272 28.027C22.8912 28.0418 24.332 27.6604 25.5969 26.9232C25.7867 26.8129 25.9705 26.6928 26.1476 26.5632C26.2171 26.5203 26.2805 26.4682 26.3359 26.4082C26.324 26.3915 26.0403 26.587 25.554 26.8493C24.2836 27.5353 22.8683 27.9096 21.4248 27.9412C20.8741 27.9555 20.5308 27.9245 20.5284 27.9459Z" fill="#455A64"/>
<path d="M20.0216 28.0239C19.9916 28.1238 19.9747 28.2272 19.9716 28.3315C19.9525 28.5341 19.9406 28.825 19.943 29.185C19.9486 29.6072 19.9757 30.029 20.024 30.4485C20.0789 30.964 20.1819 31.4732 20.3316 31.9695C20.6301 32.88 21.2394 33.6564 22.0528 34.1628C22.2985 34.3093 22.559 34.4292 22.83 34.5204C22.9276 34.5587 23.0292 34.5859 23.1328 34.6015C23.0416 34.5505 22.9458 34.5082 22.8467 34.4751C22.5869 34.3675 22.3365 34.2383 22.0981 34.0889C21.748 33.8646 21.4378 33.5834 21.1803 33.2569C20.8572 32.8649 20.6098 32.4162 20.4508 31.9337C20.3027 31.4441 20.1982 30.9423 20.1385 30.4342C20.0789 29.9574 20.0479 29.5402 20.0312 29.1826C20.0145 28.825 20.0145 28.5341 20.0312 28.3362C20.0358 28.232 20.0326 28.1276 20.0216 28.0239Z" fill="#455A64"/>
<path d="M47.9274 39.7544L42.034 45.7145C41.2592 45.5357 31.7493 39.8521 31.7493 39.8521L30.245 47.1664C30.245 47.1664 39.979 51.6483 42.6563 51.1048C43.0949 51.0166 43.8125 50.9594 44.2655 50.3896C46.4159 47.6265 50.4688 41.8285 50.4688 41.8285L47.9274 39.7544Z" fill="#FFBE9D"/>
<path d="M40.1953 94.442L37.2868 100.748L32.5926 98.5783L35.6013 90.7754L40.1953 94.442Z" fill="#FFBE9D"/>
<path d="M37.834 100.325L36.1342 103.567C36.1342 103.567 40.4922 108.066 40.0822 109.081L29.8546 104.178L32.6654 97.6763L37.834 100.325Z" fill="#455A64"/>
<path d="M33.1852 101.607C33.0728 101.593 32.959 101.619 32.8642 101.681C32.7694 101.743 32.6997 101.837 32.6678 101.946C32.6462 102.058 32.6686 102.174 32.7303 102.27C32.792 102.366 32.8883 102.434 32.9992 102.461C33.1189 102.482 33.2422 102.456 33.3436 102.389C33.4451 102.322 33.5172 102.219 33.5452 102.101C33.5554 101.982 33.5191 101.863 33.444 101.771C33.3689 101.678 33.2608 101.617 33.1423 101.603" fill="#E0E0E0"/>
<g opacity="0.6">
<path d="M29.85 104.169L30.2767 103.361L39.9225 108.367C39.9225 108.367 40.2825 108.785 40.0775 109.083L29.85 104.169Z" fill="white"/>
</g>
<path d="M36.3254 103.598C36.2992 103.648 36.0393 103.55 35.715 103.598C35.3907 103.646 35.1619 103.789 35.1261 103.746C35.0903 103.703 35.3025 103.453 35.6935 103.407C36.0846 103.362 36.3588 103.553 36.3254 103.598Z" fill="#263238"/>
<path d="M37.1864 104.551C37.1745 104.606 36.917 104.587 36.6452 104.718C36.3734 104.849 36.2184 105.047 36.1684 105.021C36.1183 104.995 36.2232 104.697 36.5618 104.544C36.9003 104.392 37.2079 104.504 37.1864 104.551Z" fill="#263238"/>
<path d="M37.1863 106.128C37.1362 106.128 37.1863 105.835 37.4462 105.623C37.7061 105.41 37.9898 105.415 37.9922 105.465C37.9946 105.515 37.7776 105.594 37.5678 105.773C37.358 105.952 37.2387 106.147 37.1863 106.128Z" fill="#263238"/>
<path d="M36.8205 102.347C36.7776 102.383 36.5821 102.204 36.2912 102.087C36.0003 101.97 35.7381 101.953 35.7309 101.899C35.7238 101.844 36.0218 101.768 36.3651 101.899C36.7084 102.03 36.8658 102.318 36.8205 102.347Z" fill="#263238"/>
<path d="M40.4268 97.8771L47.6719 78.1779C47.6719 78.1779 47.5002 74.9046 46.8971 73.8699C46.2939 72.8353 28.0274 66.8037 28.0274 66.8037C28.0274 66.8037 23.3738 65.6832 20.2722 66.8037C17.1705 67.9242 14.0189 69.3069 14.3288 71.4811C14.3787 71.8135 14.4585 72.1406 14.5672 72.4586C15.0889 73.9896 16.0676 75.3237 17.3712 76.2812C18.6748 77.2386 20.2406 77.7733 21.8576 77.8131L24.2845 78.0897L36.598 80.4403C36.7264 80.4666 36.848 80.519 36.9552 80.5943C37.0624 80.6696 37.1529 80.7662 37.2211 80.878C37.2894 80.9899 37.3338 81.1146 37.3517 81.2443C37.3696 81.3741 37.3606 81.5062 37.3252 81.6323L33.3486 94.8852C33.3486 94.8852 37.6923 97.0046 40.4268 97.8771Z" fill="#263238"/>
<path d="M46.8283 84.2446L47 91.1869L41.8314 91.3132L41.0852 82.9834L46.8283 84.2446Z" fill="#FFBE9D"/>
<path d="M46.9894 90.2617L47.204 94.224C47.204 94.224 53.0925 96.341 53.1641 97.4234L41.8208 97.5378L41.4728 90.4644L46.9894 90.2617Z" fill="#455A64"/>
<path d="M47.2682 91.9909C47.2852 91.9244 47.2852 91.8547 47.2682 91.7883C47.2299 91.6004 47.1483 91.424 47.0297 91.2733C46.9925 91.2164 46.9467 91.1657 46.8938 91.1231C46.8587 91.0944 46.8171 91.0747 46.7727 91.0655C46.7283 91.0564 46.6823 91.0581 46.6387 91.0706C46.6136 91.0783 46.5905 91.0914 46.5711 91.1092C46.5517 91.1269 46.5365 91.1488 46.5267 91.1731C46.5098 91.2177 46.5098 91.2668 46.5267 91.3114C46.5596 91.3842 46.5995 91.4537 46.6459 91.5188C46.7341 91.6524 46.808 91.7859 46.9201 91.9361C46.9563 91.98 47.0031 92.0142 47.056 92.0355C47.1089 92.0567 47.1662 92.0643 47.2229 92.0577C47.3283 92.0434 47.4288 92.0041 47.5161 91.9432C47.673 91.8407 47.8178 91.7207 47.9477 91.5856C48.0081 91.5231 48.0646 91.4571 48.117 91.3877C48.1771 91.3188 48.221 91.2373 48.2457 91.1493C48.2557 91.1004 48.2481 91.0496 48.224 91.0059C48.2 90.9622 48.1612 90.9285 48.1146 90.9109C48.069 90.8987 48.0213 90.8971 47.975 90.9062C47.9287 90.9153 47.8851 90.9348 47.8475 90.9633C47.7391 91.0473 47.6421 91.1451 47.559 91.2542C47.442 91.4035 47.3473 91.5689 47.2777 91.7453C47.248 91.8073 47.2309 91.8746 47.2276 91.9432C47.3432 91.7187 47.4797 91.5055 47.6353 91.3066C47.7169 91.2086 47.8097 91.1206 47.9119 91.0444C47.9343 91.0262 47.9605 91.0133 47.9886 91.0067C48.0167 91.0001 48.0459 90.9999 48.074 91.0062C48.0976 91.0163 48.1164 91.035 48.1266 91.0585C48.1368 91.082 48.1376 91.1085 48.1289 91.1326C48.1034 91.2003 48.0653 91.2625 48.0168 91.3162C47.9653 91.3818 47.9104 91.4447 47.8523 91.5045C47.7278 91.63 47.5903 91.7419 47.4422 91.8383C47.3713 91.8884 47.2896 91.9211 47.2038 91.9337C47.1691 91.9388 47.1338 91.9344 47.1014 91.921C47.0691 91.9075 47.041 91.8856 47.0202 91.8574C46.9248 91.7358 46.8342 91.5832 46.7484 91.4568C46.7048 91.3992 46.6664 91.3378 46.6339 91.2733C46.6101 91.2136 46.6339 91.1779 46.6697 91.1612C46.7722 91.123 46.8724 91.228 46.9415 91.3162C47.0956 91.5163 47.2068 91.746 47.2682 91.9909Z" fill="#263238"/>
<path d="M43.6966 93.7689C43.5895 93.8057 43.4991 93.8795 43.4414 93.9769C43.3838 94.0743 43.3627 94.189 43.3818 94.3006C43.4127 94.4102 43.484 94.5039 43.5814 94.5628C43.6789 94.6217 43.795 94.6413 43.9064 94.6177C44.0233 94.5837 44.1228 94.5061 44.1845 94.4011C44.2461 94.296 44.2652 94.1713 44.2378 94.0526C44.1949 93.9409 44.1102 93.8502 44.0015 93.7999C43.8929 93.7496 43.769 93.7436 43.656 93.7832" fill="#E0E0E0"/>
<g opacity="0.6">
<path d="M41.8405 97.5379L41.8619 96.6177L52.7283 96.8561C52.7283 96.8561 53.2361 97.0706 53.1837 97.4282L41.8405 97.5379Z" fill="white"/>
</g>
<path d="M47.3903 94.1643C47.3903 94.2191 47.1137 94.2478 46.8419 94.429C46.5701 94.6102 46.4295 94.8438 46.377 94.8224C46.3246 94.8009 46.4056 94.4814 46.737 94.2668C47.0684 94.0522 47.4022 94.1142 47.3903 94.1643Z" fill="#263238"/>
<path d="M48.5855 94.6437C48.5974 94.6986 48.359 94.7939 48.173 95.03C47.9871 95.266 47.9346 95.5068 47.8798 95.5068C47.8249 95.5068 47.7868 95.1921 48.0228 94.9036C48.2589 94.6151 48.5831 94.5913 48.5855 94.6437Z" fill="#263238"/>
<path d="M49.2733 96.0621C49.2232 96.074 49.1421 95.7974 49.2733 95.4922C49.4044 95.187 49.669 95.0654 49.6929 95.1107C49.7167 95.156 49.5594 95.3206 49.4545 95.5733C49.3496 95.826 49.3329 96.0549 49.2733 96.0621Z" fill="#263238"/>
<path d="M47.2794 92.8296C47.2556 92.8797 47.0005 92.8058 46.6881 92.8296C46.3758 92.8535 46.1326 92.956 46.104 92.9083C46.0754 92.8606 46.3066 92.6699 46.6762 92.6389C47.0458 92.6079 47.3057 92.7843 47.2794 92.8296Z" fill="#263238"/>
<path d="M43.8063 64.9773C43.8063 64.9773 46.9056 64.7389 47.2489 68.0884C47.5922 71.438 49.2109 87.0248 49.2109 87.0248L40.6952 87.74L39.5747 71.7122L28.0288 66.801C28.0288 66.801 41.7394 64.5434 43.8063 64.9773Z" fill="#263238"/>
<path d="M31.0509 60.4473C31.0509 60.4473 32.9295 65.716 32.5719 66.3024C32.2143 66.8889 27.3795 69.3087 27.3795 69.3087L15.2853 73.9528C15.2853 73.9528 14.0432 71.9764 14.0432 68.9463C14.0432 65.9162 18.2487 60.4473 18.2487 60.4473H31.0509Z" fill="#263238"/>
<path d="M27.458 66.5264C27.4761 66.5378 27.4952 66.5474 27.5152 66.555L27.6869 66.636L28.3568 66.934L30.8696 68.0283L39.5498 71.7641L39.5117 71.7093C39.6213 73.2923 39.7501 75.004 39.8621 76.7729C40.1554 80.9069 40.4271 84.7189 40.6417 87.7395V87.7943H40.6965L45.9676 87.3318L47.4195 87.1959L47.7986 87.1578C47.8427 87.1549 47.8865 87.1485 47.9297 87.1387C47.8861 87.135 47.8422 87.135 47.7986 87.1387L47.4171 87.1626L45.9629 87.2698L40.6941 87.6775L40.7514 87.7276C40.544 84.7118 40.2746 80.8973 39.998 76.761C39.874 74.9921 39.7596 73.2803 39.6428 71.6997V71.652L39.607 71.6353L30.9077 67.9449L28.3735 66.884L27.694 66.605L27.5176 66.5359L27.458 66.5264Z" fill="#455A64"/>
<path d="M17.8395 67.0533C17.9547 67.0318 18.0679 67.0007 18.178 66.9604L19.0887 66.6671C20.0829 66.3294 21.1026 66.0719 22.1379 65.8971C23.1715 65.7264 24.2271 65.7393 25.2562 65.9352C26.0453 66.0997 26.4983 66.3238 26.5078 66.2976C26.4095 66.233 26.3038 66.1802 26.1931 66.1403C25.8974 66.014 25.591 65.9142 25.2777 65.8423C24.2384 65.6157 23.1656 65.589 22.1164 65.7636C21.0744 65.9382 20.0511 66.2104 19.0601 66.5765C18.6787 66.71 18.3711 66.8269 18.1613 66.9103C18.0494 66.9468 17.9416 66.9948 17.8395 67.0533Z" fill="#455A64"/>
<path d="M19.5408 64.2745C19.8933 64.2545 20.2467 64.2545 20.5993 64.2745C20.9235 64.296 21.3145 64.3461 21.7436 64.3961C22.1728 64.4462 22.6472 64.5058 23.1359 64.5988C23.9762 64.7325 24.7816 65.0315 25.5056 65.4785C25.7963 65.6781 26.0712 65.8997 26.3281 66.1412C26.2832 66.053 26.2244 65.9725 26.1541 65.9028C25.9752 65.7111 25.7762 65.5393 25.5605 65.3903C24.8367 64.9115 24.019 64.5928 23.1621 64.4557C22.6662 64.3627 22.1894 64.3079 21.7579 64.2626C21.3264 64.2173 20.9354 64.1792 20.6041 64.1696C20.3421 64.1575 20.0795 64.1695 19.8197 64.2054C19.7237 64.2139 19.6296 64.2372 19.5408 64.2745Z" fill="#455A64"/>
<path d="M37.1104 101.692C37.1563 101.631 37.1888 101.561 37.2058 101.487C37.2638 101.286 37.2801 101.076 37.2535 100.869C37.2466 100.797 37.2306 100.727 37.2058 100.659C37.1889 100.616 37.1611 100.579 37.1251 100.55C37.0892 100.521 37.0463 100.502 37.0007 100.495C36.973 100.492 36.9449 100.495 36.9185 100.504C36.8921 100.513 36.8681 100.528 36.8481 100.547C36.8135 100.587 36.7919 100.636 36.7861 100.688C36.7789 100.774 36.7789 100.861 36.7861 100.948C36.8005 101.119 36.8004 101.286 36.8267 101.487C36.8359 101.545 36.8604 101.599 36.8977 101.644C36.935 101.69 36.9838 101.724 37.0389 101.744C37.1434 101.775 37.2542 101.779 37.3607 101.756C37.5537 101.724 37.7418 101.668 37.921 101.589C38.0067 101.553 38.0903 101.513 38.1714 101.468C38.2576 101.426 38.3346 101.368 38.3979 101.296C38.4336 101.253 38.4531 101.199 38.4531 101.143C38.4531 101.088 38.4336 101.034 38.3979 100.991C38.3619 100.958 38.3181 100.934 38.2706 100.923C38.223 100.911 38.1734 100.911 38.1261 100.924C37.9852 100.962 37.8498 101.018 37.7232 101.091C37.5407 101.188 37.3736 101.312 37.2272 101.458C37.1706 101.507 37.123 101.566 37.0866 101.632C37.2984 101.459 37.5259 101.306 37.7661 101.174C37.8864 101.115 38.0127 101.069 38.1428 101.036C38.2095 101.036 38.2811 101.036 38.3073 101.069C38.3231 101.092 38.3303 101.12 38.3276 101.147C38.325 101.175 38.3127 101.2 38.293 101.22C38.2388 101.276 38.174 101.322 38.1023 101.353C38.0254 101.397 37.9457 101.435 37.8638 101.468C37.6923 101.54 37.5131 101.592 37.3298 101.623C37.2468 101.643 37.16 101.643 37.077 101.623C37.0433 101.611 37.0137 101.59 36.9913 101.562C36.969 101.534 36.9549 101.501 36.9507 101.465C36.9268 101.301 36.9197 101.108 36.903 100.943C36.8933 100.864 36.8893 100.784 36.891 100.705C36.891 100.635 36.9292 100.604 36.9793 100.607C37.0889 100.607 37.1295 100.764 37.1486 100.883C37.1879 101.153 37.1749 101.427 37.1104 101.692Z" fill="#263238"/>
<path d="M31.3373 39.6748C32.1897 40.0051 32.9004 40.6222 33.347 41.4199C34.1004 42.7574 33.8977 43.4154 33.7022 44.2045C33.5067 44.9936 33.1563 46.5599 33.1372 46.4598C33.1182 46.3596 31.3373 39.6748 31.3373 39.6748Z" fill="#FFBE9D"/>
<path d="M18.5849 42.0573C18.5849 42.0573 19.5718 39.6733 19.7769 39.4539L23.4197 38.5337L25.6964 39.6494C26.3532 39.9823 27.0888 40.1283 27.823 40.0714C28.6383 39.9951 29.3535 39.6661 29.7135 39.0629L31.1439 39.4492C31.1439 39.4492 33.404 46.2699 33.3587 48.158C33.3134 50.0462 32.5267 55.4103 32.6173 56.4688C32.7079 57.5273 32.324 60.4477 31.0367 60.4477H18.2344C18.2344 60.4477 15.345 59.6467 15.2186 57.9087C15.0922 56.1708 18.5849 42.0573 18.5849 42.0573Z" fill="#B8DFF3"/>
<path d="M22.6626 52.4085C22.7252 52.4787 22.7975 52.5397 22.8772 52.5897C23.0854 52.7391 23.3073 52.8684 23.5399 52.9759C23.8863 53.1367 24.2541 53.2467 24.6318 53.3025C25.0972 53.3697 25.571 53.3495 26.0289 53.2429C26.8562 53.0314 27.6088 52.5949 28.2031 51.9818C28.383 51.8009 28.5495 51.6073 28.7014 51.4024C28.7614 51.3297 28.8119 51.2496 28.8516 51.164C28.8325 51.1497 28.6012 51.4763 28.1364 51.9126C27.5367 52.4894 26.7973 52.9002 25.9907 53.1046C25.1808 53.2887 24.3333 53.2102 23.5709 52.8805C22.9916 52.6374 22.6769 52.3847 22.6626 52.4085Z" fill="#263238"/>
<g opacity="0.3">
<path d="M28.649 51.4602C28.5607 52.4392 28.0884 53.3435 27.3354 53.9753C26.9577 54.283 26.5129 54.4972 26.037 54.6008C25.561 54.7043 25.0674 54.6942 24.5961 54.5714C24.1276 54.4375 23.7051 54.1771 23.375 53.8187C23.0448 53.4604 22.8198 53.018 22.7246 52.5402C23.3695 52.8716 24.057 53.1122 24.7677 53.2554C25.5351 53.3581 26.3157 53.2364 27.0154 52.9052C27.7151 52.574 28.304 52.0473 28.7109 51.3887L28.6084 51.4983" fill="black"/>
</g>
<g opacity="0.3">
<path d="M17.8685 53.5341C19.2202 50.9117 20.6507 48.1939 23.0156 46.4297C22.4911 48.2225 22.0215 49.908 21.4422 51.6746C21.2777 52.1776 21.0178 52.7641 20.4885 52.8475C20.2954 52.8785 20.0976 52.8308 19.9068 52.869C19.5778 52.9333 19.3537 53.2266 19.1773 53.5103C19.034 53.8134 18.8085 54.0703 18.5265 54.2517C18.2261 54.3995 17.7684 54.2517 17.7398 53.9275C17.745 53.7869 17.7896 53.6506 17.8685 53.5341Z" fill="black"/>
</g>
<path d="M14.029 48.527L20.4778 51.55C20.4778 51.55 23.3387 45.8283 23.5604 45.0344C23.7821 44.2406 24.2756 42.8888 23.5437 41.22C23.2162 40.5112 22.6444 39.944 21.933 39.6223C21.2216 39.3005 20.4182 39.2456 19.6696 39.4677C16.8255 40.4833 14.029 48.527 14.029 48.527Z" fill="#B8DFF3"/>
<path d="M32.7306 48.5275C33.031 48.5275 36.4902 50.337 36.4902 50.337L38.7812 43.6927C35.8084 42.0811 32.5041 39.8067 30.7852 39.3442L32.28 44.5319L32.7306 48.5275Z" fill="#B8DFF3"/>
<path d="M19.8539 51.1495C18.6332 53.1569 17.7797 54.3108 17.7797 54.3108L28.7344 60.9861L27.4589 63.9518L14.1417 58.4685C13.6939 58.2906 13.2946 58.0089 12.9767 57.6467C12.6589 57.2845 12.4314 56.8521 12.3132 56.3849C12.2036 55.9459 12.2143 55.4856 12.3441 55.0522L14.609 48.8013L19.8539 51.1495Z" fill="#FFBE9D"/>
<path d="M15.1173 55.3312C15.5364 55.0708 15.9748 54.8428 16.4287 54.6493C17.194 54.3608 17.8711 54.3537 17.8592 54.3108C17.3543 54.2747 16.8476 54.3472 16.373 54.5232C15.8985 54.6992 15.4671 54.9747 15.1078 55.3312H15.1173Z" fill="#EB996E"/>
<path d="M32.3432 42.6167C32.4166 42.711 32.479 42.8133 32.5291 42.9219C32.6715 43.2065 32.7903 43.5023 32.8843 43.8063C33.1815 44.7936 33.3631 45.8121 33.4255 46.8412C33.504 47.8622 33.492 48.8882 33.3897 49.9071C33.3593 50.217 33.3115 50.5251 33.2467 50.8297C33.2295 50.9441 33.1991 51.0561 33.1561 51.1635C33.1532 51.0489 33.1644 50.9344 33.1895 50.8225C33.2181 50.6056 33.2562 50.2909 33.2825 49.9023C33.3554 48.8856 33.3554 47.865 33.2825 46.8484C33.2175 45.8277 33.0522 44.816 32.789 43.8278C32.7038 43.5257 32.6011 43.2288 32.4814 42.9385C32.4237 42.8367 32.3773 42.7287 32.3432 42.6167Z" fill="#263238"/>
<path d="M37.2344 63.0146L34.4951 61.7081L29.1644 61.2838L28.7281 60.9834L27.4527 63.9491C27.4527 63.9491 28.8497 64.6167 29.5816 64.6763L34.066 64.5404L36.4095 64.7788L37.2344 63.0146Z" fill="#FFBE9D"/>
<path d="M14.0349 48.5273C14.0788 48.537 14.1213 48.5522 14.1613 48.5726L14.5189 48.7228L15.823 49.3021L20.1142 51.2546L20.6363 51.493L20.5553 51.5216C21.2991 49.9887 21.9499 48.6155 22.4124 47.6237C22.6365 47.1469 22.8177 46.744 22.9512 46.4532L23.0966 46.1361C23.1114 46.0977 23.1315 46.0616 23.1562 46.0288C23.1476 46.0687 23.1356 46.1077 23.1205 46.1456C23.0919 46.2195 23.0514 46.3292 22.9941 46.4699C22.8821 46.7536 22.7104 47.1588 22.4887 47.6619C22.0477 48.6632 21.4088 50.0459 20.6649 51.5788L20.6387 51.6337L20.5839 51.6074L20.0618 51.369L15.7967 49.3855L14.5094 48.7704L14.1613 48.5964C14.1167 48.5782 14.0743 48.555 14.0349 48.5273Z" fill="#263238"/>
<path d="M19.9661 39.4844C19.9661 39.5083 20.2689 39.4987 20.7362 39.6108C21.3434 39.7538 21.9036 40.0507 22.3629 40.4729C22.8222 40.895 23.1652 41.4282 23.3589 42.0213C23.5138 42.4767 23.5305 42.7795 23.5544 42.7771C23.5652 42.7068 23.5652 42.6352 23.5544 42.5649C23.5354 42.372 23.4987 42.1812 23.4447 41.995C23.2657 41.3748 22.919 40.816 22.4428 40.3802C21.9666 39.9444 21.3793 39.6484 20.7457 39.525C20.562 39.4882 20.3752 39.4691 20.1878 39.4677C20.1135 39.4608 20.0385 39.4664 19.9661 39.4844Z" fill="#263238"/>
<path d="M16.2587 43.6396C16.2752 43.7382 16.3041 43.8343 16.3445 43.9257C16.4316 44.1844 16.5552 44.4292 16.7117 44.6529L16.8809 44.865L16.9739 44.9795L17.0836 45.082L17.322 45.2942L17.5985 45.4825C18.0224 45.7406 18.4807 45.9373 18.9598 46.0666C19.9707 46.3503 20.9076 46.4838 21.556 46.6864C21.9065 46.7962 22.2503 46.9259 22.5859 47.075C22.5085 47.0118 22.4236 46.9582 22.3332 46.9153C22.2328 46.8565 22.1275 46.8062 22.0185 46.7651L21.8159 46.6793L21.5775 46.603C20.9266 46.3646 19.9873 46.2263 18.9884 45.9474C18.52 45.8212 18.0709 45.6319 17.6534 45.3848L17.3816 45.206L17.1432 45.0057C17.1074 44.9723 17.0693 44.9437 17.0359 44.9103L16.9453 44.8031L16.7737 44.6028C16.6155 44.3871 16.4835 44.1534 16.3803 43.9067C16.3489 43.8138 16.3081 43.7243 16.2587 43.6396Z" fill="white"/>
<path d="M17.1156 42.1211C17.2077 42.1316 17.2981 42.1533 17.385 42.1855C17.6119 42.2943 17.7993 42.4709 17.9214 42.6909C18.0073 42.8268 18.0931 42.9818 18.2075 43.1415C18.3321 43.3084 18.4779 43.4583 18.6414 43.5873C19.0221 43.8716 19.4533 44.0812 19.9121 44.2048C20.3889 44.3502 20.8657 44.4432 21.2734 44.5362C21.6418 44.6196 22.0018 44.7369 22.3486 44.8866C22.6627 45.035 22.9554 45.2251 23.2188 45.4516C23.2188 45.4516 23.2068 45.4278 23.1758 45.392C23.1309 45.3379 23.0823 45.2869 23.0304 45.2394C22.8374 45.064 22.6197 44.9179 22.3843 44.8055C22.037 44.6416 21.6735 44.5145 21.2996 44.4265C20.8824 44.3168 20.4175 44.2286 19.9479 44.0856C19.5042 43.965 19.0859 43.7655 18.7129 43.4967C18.5545 43.3768 18.4127 43.2365 18.291 43.0795C18.1789 42.9317 18.0883 42.7767 17.993 42.6432C17.8575 42.4143 17.6494 42.2372 17.4017 42.1402C17.3338 42.1155 17.2618 42.1042 17.1895 42.1068C17.1419 42.1092 17.1156 42.1164 17.1156 42.1211Z" fill="white"/>
<path d="M22.3107 47.8555C22.3416 47.8787 22.3752 47.8979 22.4109 47.9127L22.7136 48.0533C22.9759 48.1725 23.3597 48.3418 23.8413 48.5302C24.406 48.7538 24.987 48.9339 25.5792 49.0689C26.3083 49.2408 27.0617 49.2852 27.8059 49.2001C28.5423 49.079 29.2623 48.8734 29.9516 48.5874C30.5102 48.3657 31.0914 48.2058 31.6848 48.1106C32.0847 48.0512 32.4917 48.0601 32.8887 48.1368C33.17 48.1964 33.3178 48.2631 33.3202 48.2512C33.3226 48.2393 33.2868 48.2298 33.2177 48.1964C33.1148 48.1528 33.0088 48.117 32.9006 48.0891C32.4996 47.9927 32.0843 47.97 31.6752 48.0224C31.0722 48.1072 30.481 48.2616 29.9134 48.4825C29.2301 48.7581 28.5186 48.958 27.7916 49.0785C27.0614 49.161 26.3224 49.1207 25.6055 48.9593C25.0175 48.8302 24.4392 48.6606 23.8747 48.4515C23.3979 48.2751 23.0021 48.1201 22.7351 48.0128L22.4252 47.8936C22.3894 47.8748 22.3507 47.8619 22.3107 47.8555Z" fill="white"/>
<path d="M32.8984 45.6671C32.8984 45.6671 32.8722 45.6409 32.815 45.6003C32.7297 45.5444 32.6386 45.4981 32.5432 45.4621C32.1882 45.3285 31.8046 45.2891 31.4299 45.3476C30.8778 45.4321 30.3474 45.6232 29.8683 45.9103C29.2981 46.2644 28.7038 46.5782 28.0898 46.8496C27.4592 47.0732 26.7915 47.1736 26.123 47.1452C25.5758 47.1248 25.0312 47.0594 24.4947 46.9497C24.0346 46.8615 23.6627 46.7733 23.4076 46.7113C23.2763 46.6747 23.1424 46.6484 23.0071 46.6326C23.1333 46.6842 23.2632 46.7265 23.3957 46.759C23.6484 46.8329 24.0155 46.933 24.4756 47.0331C25.0163 47.1564 25.5667 47.2314 26.1206 47.2572C26.8041 47.2929 27.4879 47.1933 28.1328 46.964C28.7525 46.6912 29.351 46.3724 29.9232 46.0104C30.3888 45.7253 30.904 45.5304 31.4418 45.4358C31.8038 45.3709 32.1762 45.3954 32.5265 45.5074C32.7721 45.586 32.8913 45.6671 32.8984 45.6671Z" fill="white"/>
<path d="M34.1198 49.056C34.1198 49.056 34.1461 49.056 34.1937 49.056C34.2632 49.0422 34.3311 49.0215 34.3964 48.994C34.6408 48.8881 34.8559 48.7245 35.0234 48.5172C35.2742 48.2187 35.4564 47.8687 35.5574 47.4921C35.6683 47.0338 35.7259 46.5642 35.729 46.0927C35.7328 45.6289 35.7694 45.1661 35.8387 44.7075C35.9052 44.3373 36.0376 43.982 36.2297 43.6586C36.4139 43.3634 36.6677 43.1178 36.9688 42.9434C36.9688 42.9434 36.9425 42.9434 36.8972 42.9648C36.831 42.9901 36.7672 43.0212 36.7065 43.0578C36.4865 43.2023 36.3003 43.3926 36.1606 43.6157C35.9505 43.9427 35.8049 44.3068 35.7314 44.6885C35.6537 45.1526 35.6131 45.6221 35.6098 46.0927C35.607 46.5555 35.5543 47.0167 35.4525 47.4683C35.359 47.8313 35.1918 48.1714 34.9614 48.4672C34.804 48.6651 34.6066 48.8276 34.3821 48.944C34.2176 49.0226 34.1174 49.0441 34.1198 49.056Z" fill="white"/>
<path d="M33.4664 47.3642C33.5966 47.1124 33.7112 46.8529 33.8097 46.587L34.6083 44.7132C34.9278 43.9813 35.2234 43.3209 35.4499 42.8513C35.6764 42.3816 35.8337 42.0979 35.8194 42.0884C35.7641 42.142 35.7174 42.2039 35.6811 42.2719C35.6025 42.3959 35.4952 42.5795 35.3712 42.8107C35.1328 43.2732 34.8133 43.9288 34.4939 44.6631C34.1744 45.3974 33.9098 46.0697 33.7286 46.5704C33.638 46.8088 33.5689 47.0162 33.5236 47.1568C33.4956 47.2232 33.4764 47.2929 33.4664 47.3642Z" fill="white"/>
<path d="M52.6026 52.4902L37.2303 52.6166C36.7321 52.6166 36.2553 52.855 36.1814 53.3485L34.5006 64.5534H26.5833C26.4606 64.5534 26.343 64.6022 26.2562 64.6889C26.1695 64.7756 26.1208 64.8933 26.1208 65.0159C26.1208 65.1386 26.1695 65.2562 26.2562 65.343C26.343 65.4297 26.4606 65.4784 26.5833 65.4784H51.8612L53.5896 53.6536C53.6118 53.5106 53.603 53.3645 53.5638 53.2252C53.5245 53.0859 53.4557 52.9566 53.3621 52.8462C53.2685 52.7359 53.1522 52.647 53.0211 52.5855C52.8901 52.5241 52.7473 52.4916 52.6026 52.4902Z" fill="#E0E0E0"/>
<path d="M52.6168 52.489C52.697 52.4857 52.7773 52.4937 52.8552 52.5128C53.0908 52.5682 53.2989 52.706 53.4417 52.9014C53.5471 53.0457 53.6128 53.215 53.6324 53.3926C53.6359 53.6046 53.6167 53.8164 53.5752 54.0243L53.3535 55.5859C53.0149 57.9341 52.5286 61.3075 51.9231 65.482V65.5225H51.8801L27.3485 65.5368H26.6881C26.5673 65.5482 26.4458 65.525 26.3376 65.4701C26.2562 65.4245 26.1884 65.3581 26.1413 65.2777C26.0941 65.1972 26.0692 65.1056 26.0692 65.0123C26.0692 64.9191 26.0941 64.8275 26.1413 64.747C26.1884 64.6666 26.2562 64.6001 26.3376 64.5546C26.4445 64.501 26.5641 64.4779 26.6833 64.4878H34.4982L34.4386 64.5403C35.0441 60.528 35.6091 56.785 36.1074 53.4259C36.1226 53.2018 36.2243 52.9923 36.3911 52.8418C36.5588 52.7011 36.763 52.611 36.9799 52.582C37.1859 52.5619 37.3929 52.5547 37.5998 52.5605H38.203L40.5178 52.5438L44.6303 52.52L50.4855 52.489H52.6168C52.6168 52.489 52.5715 52.489 52.4785 52.489H52.0756L50.5093 52.5105L44.6541 52.5748L40.5417 52.6154L38.2268 52.6392H37.6236C37.4215 52.6343 37.2193 52.6415 37.0181 52.6607C36.8203 52.6877 36.6343 52.7704 36.4817 52.8991C36.3374 53.0375 36.252 53.2262 36.2433 53.4259C35.7402 56.7827 35.1824 60.528 34.5745 64.5403V64.5927H26.7071C26.609 64.5823 26.5098 64.5996 26.4211 64.6428C26.3379 64.6896 26.274 64.7644 26.2408 64.8539C26.2076 64.9434 26.2073 65.0418 26.2399 65.1315C26.2724 65.2206 26.3359 65.2951 26.4187 65.3413C26.5086 65.3865 26.6096 65.4047 26.7095 65.3938H27.3461L51.8778 65.4081L51.8325 65.4486C52.4475 61.2885 52.9506 57.9055 53.2986 55.5573C53.3869 54.9732 53.4655 54.4511 53.537 54.0005C53.5819 53.7954 53.6027 53.5858 53.599 53.3759C53.5833 53.2042 53.5224 53.0397 53.4226 52.8991C53.2857 52.7046 53.0835 52.5659 52.8528 52.5081C52.7745 52.4979 52.6957 52.4915 52.6168 52.489Z" fill="#263238"/>
<path d="M44.9352 59.8039C44.4032 59.8039 43.972 59.3727 43.972 58.8407C43.972 58.3087 44.4032 57.8774 44.9352 57.8774C45.4672 57.8774 45.8984 58.3087 45.8984 58.8407C45.8984 59.3727 45.4672 59.8039 44.9352 59.8039Z" fill="white"/>
<path d="M35.1183 65.3703C35.1422 65.3703 35.6309 62.5214 36.2126 59.0002C36.7943 55.4789 37.2473 52.6181 37.2258 52.6157C37.2044 52.6133 36.7156 55.4646 36.1339 58.9859C35.5522 62.5071 35.0969 65.3679 35.1183 65.3703Z" fill="#263238"/>
<path d="M111.992 114.566C111.992 114.533 88.9314 114.504 60.4971 114.504C32.0627 114.504 9.00195 114.523 9.00195 114.566C9.00195 114.609 32.0579 114.628 60.4971 114.628C88.9362 114.628 111.992 114.59 111.992 114.566Z" fill="#263238"/>
</svg>
