<svg width="150" height="120" viewBox="0 0 150 120" fill="none" xmlns="http://www.w3.org/2000/svg">
<g clip-path="url(#clip0_2036_6526)">
<path d="M167.263 111.049C167.263 111.082 132.926 111.116 90.5776 111.125C48.2296 111.135 13.8828 111.111 13.8828 111.078C13.8828 111.044 48.2129 111.009 90.5776 111.001C132.942 110.994 167.263 111.013 167.263 111.049Z" fill="#263238"/>
<path d="M120.007 15.2568H58.1412C56.6394 15.2568 55.4219 16.4777 55.4219 17.9836V108.322C55.4219 109.828 56.6394 111.049 58.1412 111.049H120.007C121.509 111.049 122.726 109.828 122.726 108.322V17.9836C122.726 16.4777 121.509 15.2568 120.007 15.2568Z" fill="#E0E0E0"/>
<path d="M120.005 111.048L120.214 111.034C120.419 111.017 120.622 110.977 120.819 110.917C121.142 110.813 121.444 110.652 121.71 110.441C122.074 110.142 122.354 109.754 122.525 109.315C122.628 109.052 122.688 108.773 122.703 108.491C122.717 108.193 122.703 107.876 122.703 107.538C122.703 106.876 122.703 106.154 122.703 105.371C122.703 103.802 122.703 101.994 122.703 99.9579C122.703 91.8134 122.691 80.0275 122.684 65.4673C122.684 58.1872 122.684 50.2117 122.684 41.6528C122.684 37.3661 122.684 32.943 122.684 28.3833C122.684 26.1019 122.684 23.7887 122.684 21.4437C122.684 20.2721 122.684 19.0924 122.684 17.9049C122.667 17.3174 122.457 16.7521 122.085 16.2974C121.704 15.8323 121.179 15.5079 120.594 15.3758C120.303 15.3175 120.006 15.2951 119.71 15.3091H58.1464C57.462 15.3072 56.8033 15.571 56.3084 16.045C55.8135 16.5191 55.5206 17.1668 55.4912 17.8525C55.477 19.2266 55.4912 20.6078 55.4912 21.9772V46.1347C55.4912 56.6131 55.4912 66.72 55.4912 76.3458C55.4912 85.9717 55.4912 95.1236 55.4912 103.685C55.4912 104.757 55.4912 105.818 55.4912 106.869C55.4912 107.393 55.4912 107.922 55.4912 108.438C55.5088 108.951 55.6738 109.447 55.9662 109.867C56.2578 110.281 56.6605 110.604 57.1276 110.798C57.356 110.891 57.5955 110.953 57.8401 110.984C58.0775 111.006 58.3412 111.001 58.5953 111.001H61.5972H72.9971L107.391 111.02L116.742 111.032L107.391 111.046L72.9971 111.065H61.5972H58.6C58.3459 111.065 58.0942 111.065 57.8353 111.048C57.5771 111.018 57.3239 110.954 57.0824 110.858C56.5977 110.654 56.1797 110.319 55.876 109.889C55.5695 109.454 55.3947 108.939 55.3725 108.407C55.3606 107.883 55.3725 107.362 55.3725 106.836V103.685C55.3725 95.1236 55.3725 85.974 55.3725 76.3458C55.3725 66.7176 55.3725 56.6131 55.3725 46.1347V30.1527C55.3725 27.4537 55.3725 24.7286 55.3725 21.9772C55.3725 20.6055 55.3725 19.2337 55.3725 17.8454C55.4083 17.1312 55.716 16.458 56.232 15.9644C56.7481 15.4709 57.4333 15.1946 58.1464 15.1924H119.706C120.01 15.1794 120.316 15.2034 120.615 15.2639C121.214 15.398 121.751 15.7283 122.142 16.2026C122.533 16.677 122.755 17.2684 122.774 17.8835C122.774 19.071 122.774 20.2514 122.774 21.4247C122.774 23.7712 122.774 26.0844 122.774 28.3642C122.774 32.9239 122.774 37.3471 122.774 41.6337C122.774 50.207 122.774 58.1705 122.774 65.4483C122.774 80.0085 122.757 91.7943 122.753 99.9389C122.753 101.975 122.753 103.783 122.753 105.352C122.753 106.135 122.753 106.857 122.753 107.519C122.753 107.85 122.753 108.164 122.753 108.472C122.737 108.757 122.677 109.037 122.572 109.303C122.398 109.746 122.112 110.136 121.743 110.436C121.475 110.649 121.171 110.81 120.845 110.913C120.647 110.972 120.442 111.009 120.235 111.025L120.005 111.048Z" fill="#263238"/>
<g opacity="0.3">
<path d="M61.8099 108.67L118.249 108.36L118.895 97.4268L117.166 90.8325L61.2969 99.5844L61.8099 108.67Z" fill="black"/>
</g>
<path d="M120.005 111.048L120.214 111.034C120.419 111.017 120.622 110.977 120.819 110.917C121.142 110.813 121.444 110.652 121.71 110.441C122.074 110.142 122.354 109.754 122.525 109.315C122.628 109.052 122.688 108.773 122.703 108.491C122.717 108.193 122.703 107.876 122.703 107.538C122.703 106.876 122.703 106.154 122.703 105.371C122.703 103.802 122.703 101.994 122.703 99.9579C122.703 91.8134 122.691 80.0275 122.684 65.4673C122.684 58.1872 122.684 50.2117 122.684 41.6528C122.684 37.3661 122.684 32.943 122.684 28.3833C122.684 26.1019 122.684 23.7887 122.684 21.4437C122.684 20.2721 122.684 19.0924 122.684 17.9049C122.667 17.3174 122.457 16.7521 122.085 16.2974C121.704 15.8323 121.179 15.5079 120.594 15.3758C120.303 15.3175 120.006 15.2951 119.71 15.3091H58.1464C57.462 15.3072 56.8033 15.571 56.3084 16.045C55.8135 16.5191 55.5206 17.1668 55.4912 17.8525C55.477 19.2266 55.4912 20.6078 55.4912 21.9772V46.1347C55.4912 56.6131 55.4912 66.72 55.4912 76.3458C55.4912 85.9717 55.4912 95.1236 55.4912 103.685C55.4912 104.757 55.4912 105.818 55.4912 106.869C55.4912 107.393 55.4912 107.922 55.4912 108.438C55.5088 108.951 55.6738 109.447 55.9662 109.867C56.2578 110.281 56.6605 110.604 57.1276 110.798C57.356 110.891 57.5955 110.953 57.8401 110.984C58.0775 111.006 58.3412 111.001 58.5953 111.001H61.5972H72.9971L107.391 111.02L116.742 111.032L107.391 111.046L72.9971 111.065H61.5972H58.6C58.3459 111.065 58.0942 111.065 57.8353 111.048C57.5771 111.018 57.3239 110.954 57.0824 110.858C56.5977 110.654 56.1797 110.319 55.876 109.889C55.5695 109.454 55.3947 108.939 55.3725 108.407C55.3606 107.883 55.3725 107.362 55.3725 106.836V103.685C55.3725 95.1236 55.3725 85.974 55.3725 76.3458C55.3725 66.7176 55.3725 56.6131 55.3725 46.1347V30.1527C55.3725 27.4537 55.3725 24.7286 55.3725 21.9772C55.3725 20.6055 55.3725 19.2337 55.3725 17.8454C55.4083 17.1312 55.716 16.458 56.232 15.9644C56.7481 15.4709 57.4333 15.1946 58.1464 15.1924H119.706C120.01 15.1794 120.316 15.2034 120.615 15.2639C121.214 15.398 121.751 15.7283 122.142 16.2026C122.533 16.677 122.755 17.2684 122.774 17.8835C122.774 19.071 122.774 20.2514 122.774 21.4247C122.774 23.7712 122.774 26.0844 122.774 28.3642C122.774 32.9239 122.774 37.3471 122.774 41.6337C122.774 50.207 122.774 58.1705 122.774 65.4483C122.774 80.0085 122.757 91.7943 122.753 99.9389C122.753 101.975 122.753 103.783 122.753 105.352C122.753 106.135 122.753 106.857 122.753 107.519C122.753 107.85 122.753 108.164 122.753 108.472C122.737 108.757 122.677 109.037 122.572 109.303C122.398 109.746 122.112 110.136 121.743 110.436C121.475 110.649 121.171 110.81 120.845 110.913C120.647 110.972 120.442 111.009 120.235 111.025L120.005 111.048Z" fill="#263238"/>
<g opacity="0.3">
<path d="M61.8099 108.67L118.249 108.36L118.895 97.4268L117.166 90.8325L61.2969 99.5844L61.8099 108.67Z" fill="black"/>
</g>
<path d="M119.318 19.1167H58.8281V106.526H119.318V19.1167Z" fill="white"/>
<path d="M119.324 106.524C119.324 106.021 119.3 70.7018 119.267 19.1242L119.324 19.179L58.8383 19.1861L58.9 19.1242C58.9 51.9478 58.9 82.2757 58.9 106.524L58.8501 106.474L119.343 106.524L58.8311 106.586H58.7812V106.536C58.7812 82.2804 58.7812 51.9526 58.7812 19.1361V19.0742H58.8501H119.336H119.39V19.1314C119.345 70.7018 119.324 106.021 119.324 106.524Z" fill="#263238"/>
<path d="M105.16 24.0112H74.8203V26.8213H105.16V24.0112Z" fill="#B0D9EC"/>
<path d="M75.4653 30.584H62.2344V33.3941H75.4653V30.584Z" fill="#E0E0E0"/>
<path d="M88.7532 35.585H62.2344V38.3951H88.7532V35.585Z" fill="#F5F5F5"/>
<path d="M103.706 39.4834H77.1875V42.2935H103.706V39.4834Z" fill="#F5F5F5"/>
<path d="M74.8502 39.4258H62.2344V42.2359H74.8502V39.4258Z" fill="#F5F5F5"/>
<path d="M103.819 35.4971H91.2031V38.3072H103.819V35.4971Z" fill="#F5F5F5"/>
<path d="M114.816 35.4971H105.219V38.3072H114.816V35.4971Z" fill="#F5F5F5"/>
<path d="M114.816 39.4746H105.219V42.2847H114.816V39.4746Z" fill="#F5F5F5"/>
<path d="M114.564 81.9302H62.2344V85.1309H114.564V81.9302Z" fill="#E0E0E0"/>
<path d="M114.564 44.3818H62.2344V47.5825H114.564V44.3818Z" fill="#E0E0E0"/>
<path d="M83.1056 66.8496H62.2344V70.0503H83.1056V66.8496Z" fill="#E0E0E0"/>
<path d="M115.133 66.8496H89.0391V70.0503H115.133V66.8496Z" fill="#E0E0E0"/>
<path d="M83.0866 72.0002C83.0866 72.0383 78.4174 72.0669 72.6605 72.0669C66.9036 72.0669 62.2344 72.0383 62.2344 72.0002C62.2344 71.9621 66.9012 71.9312 72.6605 71.9312C78.4198 71.9312 83.0866 71.9621 83.0866 72.0002Z" fill="#263238"/>
<path d="M82.7398 74.4572C82.7398 74.4954 78.149 74.5239 72.4871 74.5239C66.8252 74.5239 62.2344 74.4954 62.2344 74.4572C62.2344 74.4191 66.8228 74.3882 72.4871 74.3882C78.1514 74.3882 82.7398 74.4191 82.7398 74.4572Z" fill="#263238"/>
<path d="M82.9156 76.9563C82.9156 76.992 78.2868 77.0229 72.575 77.0229C66.8632 77.0229 62.2344 76.992 62.2344 76.9563C62.2344 76.9205 66.8632 76.8872 72.575 76.8872C78.2868 76.8872 82.9156 76.9182 82.9156 76.9563Z" fill="#263238"/>
<path d="M82.9156 79.3811C82.9156 79.4192 78.2868 79.4478 72.575 79.4478C66.8632 79.4478 62.2344 79.4192 62.2344 79.3811C62.2344 79.343 66.8632 79.312 72.575 79.312C78.2868 79.312 82.9156 79.343 82.9156 79.3811Z" fill="#263238"/>
<path d="M114.715 72.576C114.715 72.6141 109.88 72.6426 103.916 72.6426C97.9526 72.6426 93.1172 72.6141 93.1172 72.576C93.1172 72.5379 97.9526 72.5093 103.916 72.5093C109.88 72.5093 114.715 72.5307 114.715 72.576Z" fill="#263238"/>
<path d="M91.4717 73.3599C91.4532 73.2106 91.4437 73.0603 91.4432 72.9098C91.4432 72.6335 91.4219 72.2501 91.4147 71.7929L91.4717 71.85H89.985L90.0491 71.7834V72.6097C90.0491 72.8693 90.0491 73.117 90.0491 73.348L89.9921 73.2884C90.4267 73.2884 90.7925 73.3075 91.0537 73.3194C91.1967 73.32 91.3395 73.3295 91.4812 73.348C91.3517 73.3689 91.2206 73.3784 91.0894 73.3765C90.8305 73.3765 90.4505 73.4004 89.9921 73.4051H89.9375V73.3456C89.9375 73.1075 89.9375 72.8693 89.9375 72.6073V71.781L90.004 71.7119H91.4907H91.5453V71.7715C91.5453 72.2477 91.5287 72.6526 91.5169 72.9265C91.5134 73.0719 91.4983 73.2168 91.4717 73.3599Z" fill="#263238"/>
<path d="M114.715 75.5857C114.715 75.6238 109.88 75.6523 103.916 75.6523C97.9526 75.6523 93.1172 75.6238 93.1172 75.5857C93.1172 75.5476 97.9526 75.5166 103.916 75.5166C109.88 75.5166 114.715 75.5476 114.715 75.5857Z" fill="#263238"/>
<path d="M91.4717 76.3699C91.4532 76.2206 91.4437 76.0703 91.4432 75.9198C91.4432 75.6435 91.4219 75.2601 91.4147 74.8029L91.4717 74.86H89.985L90.0491 74.7934V75.6269C90.0491 75.8888 90.0491 76.1365 90.0491 76.3675L89.9921 76.308C90.4267 76.308 90.7925 76.327 91.0537 76.3389C91.1967 76.3395 91.3395 76.3491 91.4812 76.3675C91.3517 76.3884 91.2206 76.398 91.0894 76.3961C90.8305 76.408 90.4505 76.4199 89.9921 76.4247H89.9375V76.3651C89.9375 76.127 89.9375 75.8888 89.9375 75.6245V74.8005L90.004 74.7314H91.4907H91.5453V74.791C91.5453 75.2673 91.5287 75.6721 91.5169 75.946C91.5129 76.0883 91.4978 76.23 91.4717 76.3699Z" fill="#263238"/>
<path d="M114.715 78.5969C114.715 78.635 109.88 78.6636 103.916 78.6636C97.9526 78.6636 93.1172 78.635 93.1172 78.5969C93.1172 78.5588 97.9526 78.5278 103.916 78.5278C109.88 78.5278 114.715 78.5588 114.715 78.5969Z" fill="#263238"/>
<path d="M91.4717 79.3804C91.4532 79.2311 91.4437 79.0808 91.4432 78.9303C91.4432 78.654 91.4219 78.2706 91.4147 77.8134L91.4717 77.8706H89.985L90.0491 77.8039V78.6279C90.0491 78.8898 90.0491 79.1375 90.0491 79.3685L89.9921 79.3089C90.4267 79.3089 90.7925 79.328 91.0537 79.3399C91.1967 79.3405 91.3395 79.35 91.4812 79.3685C91.3517 79.3894 91.2206 79.3989 91.0894 79.3971C90.8305 79.409 90.4505 79.4209 89.9921 79.4256H89.9375V79.3661C89.9375 79.128 89.9375 78.8898 89.9375 78.6255V77.8015L90.004 77.7324H91.4907H91.5453V77.792C91.5453 78.2682 91.5287 78.6731 91.5169 78.947C91.5134 79.0924 91.4983 79.2374 91.4717 79.3804Z" fill="#263238"/>
<path d="M113.826 64.4813C113.826 64.4813 113.826 64.3932 113.826 64.2241C113.826 64.055 113.826 63.805 113.826 63.4763C113.826 62.8143 113.826 61.8402 113.826 60.5733C113.826 58.0394 113.826 54.3387 113.804 49.6591L113.845 49.702L62.308 49.7282L62.3721 49.6591C62.3721 54.7602 62.3721 59.7303 62.3721 64.4813L62.3104 64.4146L99.1081 64.4456L109.917 64.4646H112.824H113.579H113.838H113.586H112.84H109.947L99.1532 64.4837L62.3104 64.5146H62.2344V49.5591H62.3009L113.838 49.5853H113.876V49.6686C113.876 54.3577 113.859 58.068 113.854 60.6067C113.854 61.8688 113.854 62.8428 113.854 63.5001C113.854 63.8264 113.854 64.0741 113.854 64.2431C113.854 64.4122 113.826 64.4813 113.826 64.4813Z" fill="#263238"/>
<path d="M113.822 53.3904C113.822 53.4261 102.318 53.457 88.1299 53.457C73.9418 53.457 62.4375 53.4261 62.4375 53.3904C62.4375 53.3546 73.9395 53.3213 88.1299 53.3213C102.32 53.3213 113.822 53.3523 113.822 53.3904Z" fill="#263238"/>
<path d="M113.822 57.0696C113.822 57.1077 102.318 57.1387 88.1299 57.1387C73.9418 57.1387 62.4375 57.1077 62.4375 57.0696C62.4375 57.0315 73.9395 57.0029 88.1299 57.0029C102.32 57.0029 113.822 57.0315 113.822 57.0696Z" fill="#263238"/>
<path d="M113.822 60.7927C113.822 60.8284 102.318 60.8594 88.1299 60.8594C73.9418 60.8594 62.4375 60.8284 62.4375 60.7927C62.4375 60.757 73.9395 60.7236 88.1299 60.7236C102.32 60.7236 113.822 60.7546 113.822 60.7927Z" fill="#263238"/>
<path d="M68.2829 64.6122C68.2496 64.6122 68.2188 61.2591 68.2188 57.1226C68.2188 52.986 68.2496 49.6353 68.2829 49.6353C68.3161 49.6353 68.347 52.9883 68.347 57.1226C68.347 61.2568 68.3185 64.6122 68.2829 64.6122Z" fill="#263238"/>
<path d="M85.7048 64.1603C85.6691 64.1603 85.6406 60.9596 85.6406 57.0159C85.6406 53.0723 85.6691 49.8716 85.7048 49.8716C85.7404 49.8716 85.7689 53.0723 85.7689 57.0159C85.7689 60.9596 85.7404 64.1603 85.7048 64.1603Z" fill="#263238"/>
<path d="M104.064 64.8368C104.028 64.8368 104 61.5337 104 57.4543C104 53.3749 104.028 50.0718 104.064 50.0718C104.1 50.0718 104.128 53.3749 104.128 57.4543C104.128 61.5337 104.1 64.8368 104.064 64.8368Z" fill="#263238"/>
<path d="M113.274 31.7348C113.274 31.7705 105.406 31.7967 95.6997 31.7967C85.9933 31.7967 78.125 31.7705 78.125 31.7348C78.125 31.699 85.9909 31.6729 95.6997 31.6729C105.409 31.6729 113.274 31.7014 113.274 31.7348Z" fill="#263238"/>
<path d="M88.4592 32.9843C88.4592 33.02 86.1483 33.0462 83.296 33.0462C80.4437 33.0462 78.1328 33.02 78.1328 32.9843C78.1328 32.9486 80.4437 32.9224 83.296 32.9224C86.1483 32.9224 88.4592 32.9509 88.4592 32.9843Z" fill="#263238"/>
<path d="M104.008 87.8485C104.008 87.8843 94.655 87.9105 83.1222 87.9105C71.5894 87.9105 62.2344 87.8843 62.2344 87.8485C62.2344 87.8128 71.5822 87.7866 83.1222 87.7866C94.6622 87.7866 104.008 87.8152 104.008 87.8485Z" fill="#263238"/>
<path d="M96.1774 89.9519C96.1482 89.9551 96.1187 89.9551 96.0895 89.9519H95.833L94.845 89.9638L91.2066 89.9828L79.2059 90.0019L67.2052 89.9828L63.5667 89.9638L62.5787 89.9519H62.3199C62.2915 89.955 62.2628 89.955 62.2344 89.9519H62.3199H62.5787L63.5667 89.94L67.2052 89.9185L79.2059 89.9019L91.209 89.9161L94.8474 89.9376L95.8354 89.9495H96.0919C96.1204 89.9472 96.149 89.948 96.1774 89.9519Z" fill="#263238"/>
<path d="M82.0392 92.0595C81.972 92.0631 81.9046 92.0631 81.8373 92.0595L81.2602 92.0714L79.1394 92.0904L72.1356 92.1095L65.1342 92.0904L63.011 92.0714L62.4339 92.0595C62.3674 92.063 62.3008 92.063 62.2344 92.0595C62.3003 92.0486 62.3671 92.0438 62.4339 92.0452L63.011 92.0333L65.1342 92.0142L72.1356 91.9976L79.1394 92.0142L81.2602 92.0333L81.8373 92.0452C81.9049 92.0438 81.9725 92.0486 82.0392 92.0595Z" fill="#263238"/>
<path d="M79.1068 97.0052C79.1068 97.0409 75.9837 97.0695 72.1315 97.0695C68.2793 97.0695 65.1562 97.0409 65.1562 97.0052C65.1562 96.9694 68.2793 96.9385 72.1315 96.9385C75.9837 96.9385 79.1068 96.9671 79.1068 97.0052Z" fill="#263238"/>
<path d="M108.021 102.401C108.021 102.401 108.064 102.323 108.133 102.163C108.225 101.937 108.266 101.693 108.254 101.449C108.225 101.059 108.162 100.672 108.066 100.294C107.922 99.7852 107.889 99.2512 107.971 98.729C108.049 98.4151 108.191 98.1208 108.388 97.8653C108.586 97.6098 108.834 97.3986 109.118 97.2453C109.451 97.0734 109.823 96.9898 110.197 97.0028C110.571 97.0157 110.936 97.1246 111.256 97.3191C111.608 97.5204 111.895 97.8177 112.085 98.1765C112.185 98.3697 112.222 98.5898 112.189 98.8052C112.166 98.9193 112.108 99.0233 112.023 99.1023C111.937 99.1814 111.83 99.2316 111.714 99.2457C111.502 99.2659 111.288 99.2706 111.075 99.26H110.437C110.009 99.26 109.572 99.2315 109.133 99.191C108.273 99.1245 107.425 98.9402 106.615 98.6432C106.23 98.5146 105.817 98.417 105.47 98.5789C105.124 98.7409 104.893 99.0719 104.606 99.3291C104.464 99.4712 104.286 99.571 104.091 99.6173C103.895 99.6567 103.692 99.6201 103.523 99.5149C103.238 99.3046 102.975 99.0651 102.739 98.8004C102.628 98.6855 102.494 98.5961 102.345 98.5385C102.204 98.4871 102.049 98.4871 101.908 98.5385C101.652 98.6865 101.424 98.8792 101.236 99.1076C101.047 99.2963 100.815 99.4366 100.56 99.5166C100.306 99.5966 100.036 99.614 99.7729 99.5672C99.3744 99.4963 99.0187 99.2736 98.7802 98.9457C98.6295 98.7426 98.5286 98.5069 98.4857 98.2574C98.4699 98.1719 98.4651 98.0846 98.4714 97.9979C98.4714 97.9979 98.4714 98.0884 98.5118 98.2527C98.5654 98.4933 98.6708 98.7193 98.8206 98.9147C99.057 99.2239 99.4016 99.4315 99.7848 99.4958C100.035 99.5358 100.292 99.5154 100.533 99.4364C100.774 99.3573 100.993 99.2217 101.172 99.0409C101.366 98.8011 101.603 98.5993 101.87 98.4456C102.032 98.3785 102.212 98.3717 102.378 98.4265C102.542 98.4875 102.69 98.5834 102.813 98.7075C103.045 98.9652 103.302 99.199 103.58 99.4053C103.726 99.4946 103.9 99.5253 104.067 99.491C104.24 99.4476 104.398 99.3569 104.523 99.2291C104.801 98.9909 105.029 98.6385 105.418 98.4527C105.615 98.368 105.831 98.3376 106.043 98.3646C106.252 98.3921 106.457 98.4416 106.656 98.5123C107.457 98.8045 108.294 98.9855 109.145 99.0505C109.579 99.0886 110.014 99.1076 110.441 99.1195H111.078C111.283 99.1288 111.488 99.1249 111.693 99.1076C111.783 99.0991 111.868 99.0615 111.935 99.0006C112.002 98.9397 112.048 98.8586 112.066 98.7695C112.093 98.5819 112.061 98.3906 111.975 98.2217C111.797 97.8843 111.527 97.6044 111.197 97.4144C110.895 97.2307 110.552 97.1267 110.2 97.1122C109.848 97.0976 109.498 97.1729 109.183 97.3311C108.909 97.4774 108.67 97.6791 108.479 97.9235C108.288 98.1679 108.15 98.4495 108.073 98.7504C107.99 99.2589 108.016 99.7793 108.149 100.277C108.241 100.661 108.298 101.054 108.318 101.449C108.326 101.701 108.275 101.951 108.168 102.18C108.128 102.259 108.079 102.333 108.021 102.401Z" fill="#263238"/>
<path d="M115.243 99.8777C115.187 99.8854 115.13 99.8893 115.072 99.8896H114.583L112.781 99.9063C111.258 99.9063 109.156 99.9468 106.843 100.016C104.53 100.085 102.419 100.178 100.906 100.254L99.1056 100.342L98.6163 100.364C98.5595 100.369 98.5022 100.369 98.4453 100.364C98.5006 100.35 98.5571 100.342 98.6139 100.34L99.1032 100.294C99.5259 100.256 100.141 100.211 100.901 100.161C102.421 100.061 104.523 99.9539 106.838 99.8849C109.154 99.8158 111.265 99.8039 112.788 99.8134C113.55 99.8134 114.165 99.8301 114.59 99.842L115.082 99.8563C115.136 99.8582 115.19 99.8654 115.243 99.8777Z" fill="#263238"/>
<path d="M86.1091 97.955L84.6295 98.3313L84.525 99.0862L83.5156 99.341L84.1735 95.4354L85.1496 95.1973L87.5887 98.3146L86.558 98.5789L86.1091 97.955ZM85.6341 97.2953L84.9002 96.288L84.734 97.5263L85.6341 97.2953Z" fill="#B0D9EC"/>
<path d="M90.4606 95.2194C90.6625 96.0172 90.1875 96.6673 89.2304 96.9103L88.62 97.0651L88.8575 97.9843L87.8648 98.2343L86.9766 94.7217L88.5797 94.3145C89.5392 94.0716 90.2516 94.4145 90.4606 95.2194ZM89.4584 95.4742C89.3753 95.148 89.1235 94.998 88.7127 95.1123L88.1617 95.2528L88.4229 96.2816L88.9715 96.1411C89.3824 96.0387 89.5392 95.7934 89.4584 95.4742Z" fill="#B0D9EC"/>
<path d="M94.1067 94.2925C94.3086 95.0903 93.8336 95.7404 92.8788 95.9833L92.2661 96.1381L92.5036 97.0574L91.5132 97.3098L90.625 93.7971L92.2257 93.3899C93.1781 93.1446 93.9048 93.4876 94.1067 94.2925ZM93.1092 94.5473C93.0261 94.221 92.772 94.0829 92.3611 94.1877L91.8125 94.3258L92.0714 95.357L92.6223 95.2165C93.0308 95.1117 93.1876 94.8688 93.1092 94.5473Z" fill="#B0D9EC"/>
<path d="M96.435 95.0616L95.8935 95.1998L96.131 96.1333L95.1382 96.3833L94.25 92.8707L95.8531 92.4635C96.8031 92.2253 97.5346 92.5635 97.7388 93.3684C97.8066 93.5986 97.8041 93.8438 97.7317 94.0726C97.6594 94.3013 97.5204 94.5031 97.3327 94.652L98.3682 95.5641L97.3066 95.8332L96.435 95.0616ZM95.9909 93.2613L95.4399 93.4018L95.7225 94.4401L96.2711 94.2996C96.682 94.1948 96.8387 93.9519 96.758 93.6328C96.6772 93.3136 96.4112 93.1565 96.0004 93.2613H95.9909Z" fill="#B0D9EC"/>
<path d="M98.2246 93.7254C97.9586 92.6728 98.5903 91.6892 99.7113 91.4034C100.832 91.1177 101.849 91.6821 102.12 92.7371C102.39 93.792 101.756 94.7732 100.635 95.059C99.5142 95.3447 98.4929 94.7851 98.2246 93.7254ZM101.12 92.9919C101.063 92.8088 100.953 92.6464 100.805 92.5249C100.658 92.4033 100.477 92.328 100.287 92.3081C100.097 92.2882 99.9048 92.3247 99.735 92.413C99.5652 92.5013 99.425 92.6376 99.3316 92.805C99.2382 92.9724 99.1958 93.1635 99.2096 93.3548C99.2234 93.5461 99.2929 93.7292 99.4093 93.8814C99.5258 94.0335 99.6842 94.1481 99.8649 94.211C100.046 94.2738 100.241 94.2822 100.426 94.235C100.555 94.2034 100.676 94.1455 100.782 94.065C100.888 93.9845 100.976 93.883 101.041 93.7668C101.106 93.6507 101.147 93.5224 101.16 93.3899C101.174 93.2574 101.16 93.1236 101.12 92.9966V92.9919Z" fill="#B0D9EC"/>
<path d="M105.63 89.979L105.017 93.8727L104.031 94.1227L101.656 90.9887L102.727 90.7173L104.269 92.7725L104.661 90.2362L105.63 89.979Z" fill="#B0D9EC"/>
<path d="M109.344 91.9562L109.539 92.7254L106.724 93.4398L105.836 89.9272L108.584 89.2271L108.779 89.9963L107.012 90.444L107.161 91.037L108.717 90.6416L108.907 91.3847L107.356 91.78L107.517 92.423L109.344 91.9562Z" fill="#B0D9EC"/>
<path d="M109.203 89.0732L110.866 88.6517C112.027 88.3564 113.003 88.8303 113.267 89.9091C113.53 90.9879 112.915 91.869 111.754 92.1643L110.091 92.5858L109.203 89.0732ZM111.507 91.3808C111.64 91.3585 111.767 91.308 111.88 91.2326C111.992 91.1571 112.087 91.0585 112.158 90.9433C112.229 90.8281 112.275 90.699 112.293 90.5646C112.31 90.4302 112.299 90.2936 112.26 90.1639C112.105 89.5566 111.616 89.3018 111.02 89.4494L110.393 89.609L110.88 91.5356L111.507 91.3808Z" fill="#B0D9EC"/>
<path d="M83.0734 102.157C82.6302 102.156 82.1998 102.008 81.8492 101.736C81.4986 101.464 81.2476 101.084 81.1354 100.654L79.9479 96.1291C79.8139 95.6144 79.8885 95.0674 80.1556 94.6078C80.4226 94.1481 80.8603 93.8132 81.3729 93.6762L112.01 85.6698C112.523 85.5348 113.068 85.6094 113.527 85.8773C113.985 86.1452 114.318 86.5844 114.454 87.0986L115.629 91.6234C115.697 91.8781 115.713 92.1437 115.678 92.4048C115.643 92.666 115.556 92.9176 115.424 93.1452C115.292 93.3729 115.116 93.5721 114.907 93.7314C114.697 93.8908 114.459 94.0072 114.204 94.0739L83.5674 102.083C83.4063 102.127 83.2404 102.152 83.0734 102.157ZM112.54 86.3175C112.429 86.3177 112.319 86.3321 112.212 86.3604L81.5748 94.3692C81.4101 94.4107 81.2554 94.485 81.1199 94.5877C80.9845 94.6904 80.871 94.8194 80.7863 94.967C80.6999 95.1133 80.6432 95.2753 80.6196 95.4437C80.5959 95.6121 80.6058 95.7836 80.6485 95.9481L81.836 100.473C81.9226 100.805 82.1369 101.089 82.432 101.263C82.7272 101.437 83.079 101.487 83.4106 101.402L114.048 93.3928C114.375 93.3029 114.653 93.0876 114.823 92.7935C114.993 92.4994 115.04 92.15 114.955 91.8211L113.767 87.2963C113.696 87.0185 113.534 86.7724 113.308 86.5965C113.082 86.4207 112.804 86.325 112.518 86.3247L112.54 86.3175Z" fill="#B0D9EC"/>
<path d="M76.5424 12.8706H104.555C104.954 12.8706 105.336 13.0294 105.618 13.3121C105.9 13.5948 106.058 13.9783 106.058 14.3781V21.8916H75.0391V14.3781C75.0391 13.9783 75.1974 13.5948 75.4794 13.3121C75.7613 13.0294 76.1437 12.8706 76.5424 12.8706Z" fill="#263238"/>
<path d="M94.4936 9.47949H86.6016L87.5231 16.2643H93.47L94.4936 9.47949Z" fill="#263238"/>
<path d="M104.063 12.8709C104.063 12.909 98.0117 12.9376 90.5496 12.9376C83.0874 12.9376 77.0312 12.909 77.0312 12.8709C77.0312 12.8328 83.0827 12.8066 90.5496 12.8066C98.0164 12.8066 104.063 12.8352 104.063 12.8709Z" fill="#455A64"/>
<path d="M75.7384 20.4372C75.7027 20.4372 75.6719 19.1607 75.6719 17.5794C75.6719 15.9981 75.7027 14.7217 75.7384 14.7217C75.774 14.7217 75.8025 15.9981 75.8025 17.5794C75.8025 19.1607 75.774 20.4372 75.7384 20.4372Z" fill="#455A64"/>
<path d="M105.049 19.7633C104.98 18.9022 104.956 18.0382 104.977 17.1746C104.955 16.312 104.977 15.4487 105.044 14.5884C105.08 14.5884 105.108 15.7458 105.108 17.1746C105.108 18.6035 105.084 19.7633 105.049 19.7633Z" fill="#455A64"/>
<path d="M103.554 20.9627C103.554 20.9984 97.3409 21.027 89.6792 21.027C82.0176 21.027 75.8047 20.9984 75.8047 20.9627C75.8047 20.927 82.0152 20.896 89.6792 20.896C97.3432 20.896 103.554 20.927 103.554 20.9627Z" fill="#455A64"/>
<g opacity="0.3">
<path d="M106.054 15.4526L107.339 19.2701V21.1419H105.891L106.054 15.4526Z" fill="black"/>
</g>
<path d="M23.2991 21.2751C22.1501 20.6925 20.8571 20.4569 19.5771 20.597C18.2972 20.737 17.0853 21.2466 16.0886 22.0639C15.0919 22.8812 14.3532 23.9711 13.9623 25.2013C13.5714 26.4314 13.5451 27.7489 13.8865 28.9938C14.2279 30.2386 14.9223 31.3574 15.8856 32.2141C16.8488 33.0708 18.0394 33.6288 19.3127 33.8201C20.586 34.0115 21.8874 33.8281 23.0588 33.2921C24.2302 32.7562 25.2212 31.8908 25.9116 30.8009L27.7617 30.4533L26.7096 28.9958C27.117 27.5119 27 25.9324 26.3784 24.5252C25.7568 23.1179 24.6688 21.9697 23.2991 21.2751Z" fill="white"/>
<path d="M23.298 21.2752L23.4429 21.349C23.5379 21.4038 23.6804 21.4752 23.8657 21.5872C24.3868 21.9182 24.8606 22.3188 25.274 22.7779C25.4148 22.9293 25.5472 23.0883 25.6706 23.2542C25.7371 23.3447 25.8036 23.4352 25.8701 23.5304C25.9366 23.6257 25.9913 23.7305 26.0554 23.8329C26.1845 24.049 26.3011 24.2724 26.4045 24.5021C26.4591 24.6211 26.5042 24.7402 26.5541 24.8712L26.6277 25.0641L26.6895 25.2641C27.0647 26.4813 27.0886 27.78 26.7584 29.0102V28.9673L27.8105 30.42L27.8604 30.4891L27.7772 30.5057L25.9224 30.8558L25.958 30.8296C25.1755 32.057 24.0209 33.0002 22.6639 33.5206C21.1853 34.0792 19.5571 34.0944 18.0684 33.5635C17.3641 33.3097 16.7044 32.9456 16.1138 32.4847C15.549 32.0253 15.0608 31.4787 14.6674 30.8653C14.5772 30.7129 14.4703 30.5676 14.3943 30.4081L14.1568 29.9318C14.0236 29.6128 13.9125 29.285 13.8243 28.9506C13.486 27.6732 13.534 26.3237 13.9621 25.0736L14.0357 24.8521C14.0618 24.7807 14.0951 24.7116 14.1259 24.6402L14.3112 24.2234C14.3824 24.0901 14.4584 23.9615 14.532 23.8329C14.6016 23.7024 14.681 23.5774 14.7695 23.459C15.3747 22.5607 16.1901 21.8249 17.1445 21.3157C17.9405 20.8962 18.8114 20.6388 19.7071 20.5584C20.0707 20.53 20.436 20.53 20.7996 20.5584C21.1048 20.5849 21.4079 20.6319 21.7068 20.6989C21.8398 20.7322 21.9681 20.756 22.0868 20.7894L22.4122 20.8989L22.6901 20.9942L22.9109 21.0942L23.2102 21.2347C23.2767 21.2657 23.3099 21.2847 23.3099 21.2847L23.203 21.2466L22.9014 21.118L22.6782 21.0228L22.4003 20.9347L22.0749 20.8299C21.9586 20.7989 21.8374 20.7775 21.6973 20.7465C21.3996 20.6838 21.0981 20.6409 20.7948 20.6179C20.4347 20.5973 20.0734 20.6037 19.7142 20.637C18.8367 20.7233 17.9847 20.9814 17.2063 21.3967C16.2632 21.9016 15.4583 22.6311 14.8622 23.5209C14.7743 23.6373 14.695 23.7599 14.6247 23.8877C14.5534 24.0163 14.4774 24.1425 14.4085 24.2735C14.3397 24.4044 14.2874 24.5473 14.228 24.6854C14.1972 24.7545 14.1639 24.8236 14.1378 24.8926L14.0666 25.1117C13.6515 26.3417 13.6077 27.6672 13.9407 28.9221C14.0301 29.2513 14.1412 29.5743 14.2732 29.8889L14.5107 30.3652C14.5843 30.5224 14.6912 30.6629 14.779 30.8153C15.1667 31.4168 15.6477 31.9522 16.204 32.4014C16.7827 32.8545 17.4297 33.2122 18.1206 33.4611C19.5826 33.9809 21.1806 33.9666 22.6331 33.4206C23.9665 32.9113 25.1025 31.9875 25.8749 30.7844L25.8891 30.7629H25.9129L27.763 30.4176L27.7297 30.5033L26.68 29.0459L26.6657 29.0268V29.003C26.9968 27.7909 26.9795 26.5097 26.6159 25.307L26.5589 25.1093C26.5327 25.045 26.509 24.9807 26.4852 24.9188C26.4354 24.795 26.395 24.6807 26.3404 24.5521C26.2396 24.3244 26.1262 24.1026 26.0008 23.8877C25.939 23.7853 25.882 23.6829 25.8203 23.5852L25.6255 23.3113C25.5037 23.1462 25.3737 22.9872 25.236 22.8351C24.8277 22.3807 24.3632 21.9806 23.8538 21.6443C23.6757 21.5324 23.5332 21.4562 23.4405 21.4062C23.3479 21.3562 23.298 21.2752 23.298 21.2752Z" fill="#263238"/>
<path d="M16.9609 27.6411L17.8634 26.6671L19.7325 28.2102L23.1572 24.6523L24.0621 25.5597L19.666 30.0297L16.9609 27.6411Z" fill="#B0D9EC"/>
<path d="M40.8211 101.121L39.2869 106.524C39.2869 106.524 44.1698 109.92 43.9893 110.951L33.5703 108.303L35.6199 99.7847L40.8211 101.121Z" fill="#455A64"/>
<path d="M36.1734 105.247C36.0651 105.253 35.9626 105.298 35.8859 105.375C35.8091 105.452 35.7635 105.555 35.7578 105.664C35.7589 105.773 35.8012 105.877 35.8761 105.956C35.9511 106.034 36.0532 106.082 36.1616 106.088C36.2761 106.079 36.3837 106.029 36.4645 105.948C36.5453 105.866 36.5938 105.757 36.6009 105.642C36.5795 105.423 36.3397 105.197 36.1259 105.249" fill="#E0E0E0"/>
<g opacity="0.6">
<path d="M33.5703 108.303L33.8078 107.453L43.7067 110.311C43.7067 110.311 44.1199 110.632 43.9869 110.951L33.5703 108.303Z" fill="white"/>
</g>
<path d="M39.4675 106.512C39.4532 106.564 39.192 106.524 38.8999 106.626C38.6077 106.729 38.4249 106.912 38.3821 106.879C38.3394 106.845 38.489 106.567 38.8429 106.45C39.1967 106.333 39.4888 106.469 39.4675 106.512Z" fill="#263238"/>
<path d="M40.455 107.25C40.455 107.302 40.2175 107.335 39.98 107.509C39.7425 107.683 39.6451 107.902 39.5952 107.888C39.5453 107.874 39.5952 107.571 39.8707 107.359C40.1462 107.147 40.4668 107.2 40.455 107.25Z" fill="#263238"/>
<path d="M40.7406 108.729C40.6907 108.729 40.6836 108.453 40.8831 108.203C41.0826 107.953 41.3581 107.9 41.3581 107.948C41.3581 107.996 41.1847 108.112 41.0232 108.32C40.8617 108.527 40.7928 108.743 40.7406 108.729Z" fill="#263238"/>
<path d="M39.6892 105.242C39.6583 105.283 39.4517 105.152 39.1477 105.1C38.8437 105.047 38.6086 105.081 38.5943 105.031C38.5801 104.981 38.8318 104.85 39.1833 104.919C39.5348 104.988 39.7248 105.207 39.6892 105.242Z" fill="#263238"/>
<path d="M37.1779 102.392L36.9404 108.012C36.9404 108.012 42.4788 110.156 42.5358 111.192L31.7891 111.111L31.8128 102.34L37.1779 102.392Z" fill="#455A64"/>
<path d="M33.6186 107.512C33.5143 107.544 33.4254 107.614 33.3689 107.707C33.3124 107.801 33.2922 107.912 33.3122 108.019C33.3382 108.124 33.4035 108.215 33.4946 108.273C33.5857 108.332 33.6955 108.352 33.8014 108.331C33.9107 108.296 34.0037 108.223 34.0631 108.124C34.1224 108.026 34.1442 107.909 34.1244 107.795C34.0866 107.688 34.0083 107.599 33.9061 107.549C33.804 107.499 33.6862 107.491 33.5782 107.526" fill="#E0E0E0"/>
<g opacity="0.6">
<path d="M31.7812 111.111L31.8193 110.228L42.1029 110.635C42.1029 110.635 42.5778 110.849 42.5232 111.192L31.7812 111.111Z" fill="white"/>
</g>
<path d="M37.1067 107.958C37.1067 108.01 36.8431 108.034 36.5843 108.196C36.3254 108.358 36.1853 108.586 36.1378 108.565C36.0903 108.544 36.1686 108.236 36.4869 108.039C36.8051 107.841 37.1186 107.908 37.1067 107.958Z" fill="#263238"/>
<path d="M38.2325 108.439C38.2443 108.491 38.0163 108.579 37.8358 108.805C37.6553 109.032 37.5983 109.265 37.5508 109.263C37.5033 109.26 37.4677 108.96 37.6957 108.684C37.9237 108.408 38.2325 108.389 38.2325 108.439Z" fill="#263238"/>
<path d="M38.8582 109.815C38.8107 109.815 38.7394 109.558 38.8772 109.268C39.0149 108.977 39.2595 108.863 39.2809 108.908C39.3023 108.953 39.1503 109.108 39.0434 109.349C38.9365 109.589 38.9104 109.811 38.8582 109.815Z" fill="#263238"/>
<path d="M37.0249 106.671C37.0012 106.719 36.7613 106.643 36.4644 106.671C36.1675 106.7 35.9372 106.783 35.9087 106.736C35.8802 106.688 36.1058 106.498 36.4549 106.498C36.804 106.498 37.051 106.629 37.0249 106.671Z" fill="#263238"/>
<path d="M30.5246 61.2764V65.7202L31.6978 83.0286C31.6978 83.0286 30.9687 91.4256 30.5103 96.1647C30.1208 100.28 30.7478 107.448 30.7478 107.448H37.583L40.0292 83.543L41.5563 68.6327L44.1973 61.8479L30.5246 61.2764Z" fill="#263238"/>
<path d="M47.322 61.2764L47.9751 79.3183C47.93 82.7023 46.999 89.0227 45.7925 92.1781L40.3016 104.278L39.9834 105.367L35.8984 104.364L38.9503 61.5764L47.322 61.2764Z" fill="#263238"/>
<path d="M42.591 66.0557C42.5941 66.0913 42.5941 66.1272 42.591 66.1628C42.591 66.2414 42.591 66.3462 42.591 66.4796C42.591 66.7653 42.591 67.1749 42.591 67.6989C42.591 68.7562 42.591 70.2875 42.5577 72.1784C42.5245 74.0693 42.4675 76.3221 42.3202 78.8227C42.173 81.3232 42.0067 84.0761 41.4225 86.9196C40.8834 89.7559 40.3086 92.447 39.8004 94.8951C39.2921 97.3432 38.8504 99.5485 38.506 101.411C38.1617 103.273 37.9313 104.783 37.7935 105.831C37.7152 106.355 37.6748 106.762 37.6344 107.038C37.6178 107.172 37.6035 107.276 37.5917 107.352C37.5888 107.388 37.5824 107.423 37.5727 107.457C37.5695 107.422 37.5695 107.386 37.5727 107.35L37.6012 107.036C37.632 106.757 37.6653 106.348 37.7365 105.824C37.86 104.773 38.0833 103.259 38.4087 101.394C38.734 99.5294 39.171 97.3194 39.6745 94.8689C40.178 92.4184 40.748 89.7297 41.2871 86.8934C41.8714 84.0666 42.04 81.3184 42.1944 78.825C42.3487 76.3316 42.401 74.0764 42.4461 72.1855C42.4912 70.2947 42.5102 68.7658 42.5221 67.7084C42.5221 67.1845 42.534 66.7749 42.5364 66.4891C42.5364 66.3557 42.5364 66.2509 42.5364 66.1724C42.5504 66.1316 42.5687 66.0925 42.591 66.0557Z" fill="#455A64"/>
<path d="M51.3316 55.5554C51.4245 55.8932 51.459 56.2443 51.4337 56.5938C51.3839 57.1248 51.3577 58.4322 49.9446 58.88C48.5315 59.3277 47.1992 58.2632 46.7669 57.7821C46.3347 57.3011 46.3846 55.7317 46.3846 55.7317L48.7073 54.6934L51.3316 55.5554Z" fill="#B0D9EC"/>
<path d="M35.2812 35.5625L34.0937 37.4677L29.3438 39.5014L30.5312 59.108L31.3862 62.6587L47.2462 62.13L47.9445 60.9393L46.757 45.8575C46.3984 42.464 45.6384 40.6493 44.1232 39.8158L43.1328 39.1347L42.7576 37.8892L41.3682 36.5722L36.8914 35.4077L35.2812 35.5625Z" fill="#B0D9EC"/>
<g opacity="0.3">
<path d="M30.0078 57.6038C30.5191 58.3828 31.2422 58.9986 32.0915 59.3784C32.9409 59.7582 33.8809 59.8862 34.8005 59.7471C36.3941 59.478 37.7359 58.4231 39.2631 57.8968C41.9206 56.9799 44.9511 57.7086 47.5754 56.687C47.6277 56.2345 47.5968 55.6796 47.6277 55.37C46.3143 55.3034 44.9202 55.2295 43.7636 54.6103L42.7115 54.2222L30.0078 57.6038Z" fill="black"/>
</g>
<path d="M29.3341 39.4902C29.3341 39.4902 27.0731 41.4311 27.7286 46.487C28.3366 51.1856 29.4148 57.7322 30.8541 58.4919C32.2933 59.2516 35.3974 58.8705 37.6678 57.5798C39.9383 56.289 46.5288 52.7954 46.5288 52.7954L43.8024 47.9373L35.015 51.3523C35.015 51.3523 33.8798 43.5601 33.1982 42.217" fill="#B0D9EC"/>
<path d="M33.2051 42.2178C33.2051 42.2178 33.2313 42.2678 33.274 42.3678C33.2954 42.4178 33.3239 42.4774 33.3524 42.5536L33.4379 42.8203C33.5685 43.2228 33.7205 43.83 33.8891 44.6159C34.2288 46.1924 34.6372 48.4882 35.0766 51.3483L35.0125 51.3102L43.7999 47.8809L43.8474 47.8618L43.8735 47.9071L46.6047 52.7653L46.6356 52.8224L46.5786 52.8534L40.9452 55.8969L38.1831 57.3877C37.7295 57.6258 37.2782 57.8878 36.808 58.1021C36.3406 58.2998 35.8606 58.4661 35.3711 58.5998C34.4188 58.8666 33.4307 58.9815 32.4428 58.9404C31.9598 58.9226 31.4835 58.8219 31.0344 58.6427L30.8682 58.5689C30.8135 58.5403 30.7611 58.5077 30.7114 58.4712C30.6161 58.3951 30.53 58.308 30.4549 58.2116C30.3112 58.0257 30.1871 57.8254 30.0844 57.6139C29.7055 56.7958 29.4103 55.9412 29.2033 55.0634C28.9825 54.2179 28.8067 53.3963 28.65 52.5843C28.3388 50.9768 28.1061 49.4669 27.9137 48.0881C27.7214 46.7092 27.5527 45.4542 27.6026 44.342C27.6261 43.3924 27.7942 42.452 28.1013 41.5534C28.301 40.9869 28.5818 40.4526 28.935 39.9673C29.0267 39.8411 29.1275 39.7217 29.2366 39.6101C29.2725 39.5714 29.3114 39.5356 29.353 39.5029C29.353 39.5029 29.315 39.541 29.2461 39.6196C29.1424 39.7344 29.0456 39.8553 28.9563 39.9816C28.614 40.47 28.3429 41.0049 28.1512 41.57C27.8534 42.4653 27.6932 43.4008 27.6762 44.3444C27.6335 45.4494 27.8068 46.6973 28.0063 48.0762C28.2058 49.455 28.441 50.9577 28.7568 52.5628C28.916 53.3654 29.0917 54.1917 29.315 55.0348C29.5225 55.9026 29.8161 56.7475 30.1913 57.5567C30.2919 57.7608 30.412 57.9547 30.5499 58.1354C30.6211 58.2224 30.7007 58.3022 30.7874 58.3736C30.8324 58.4049 30.8792 58.4336 30.9276 58.4593L31.0843 58.5284C31.5208 58.701 31.9834 58.7976 32.4523 58.8142C33.4266 58.8534 34.4011 58.7393 35.3402 58.476C35.8256 58.3426 36.3016 58.1771 36.7652 57.9806C37.2402 57.7806 37.6701 57.5306 38.1284 57.2853L40.8905 55.7921L46.5263 52.751L46.5002 52.8415L43.7785 47.9785L43.8521 48.0071L35.0647 51.4102L35.0077 51.4316V51.3721C34.5874 48.5144 34.1908 46.2163 33.8701 44.6397C33.7086 43.8515 33.5638 43.2442 33.4426 42.8394C33.4141 42.7393 33.388 42.6488 33.3643 42.5726L33.293 42.3845C33.2218 42.2702 33.2051 42.2178 33.2051 42.2178Z" fill="#263238"/>
<path d="M33.9688 45.0994L39.6734 44.7231L40.9345 47.1022L34.5411 48.2548L33.9688 45.0994Z" fill="#B0D9EC"/>
<path d="M33.9688 45.099C33.9908 45.1773 34.0083 45.2568 34.021 45.3372C34.0519 45.4943 34.0946 45.7063 34.1492 45.9706C34.2561 46.5255 34.4057 47.3042 34.591 48.2544L34.5316 48.214L40.2885 47.1614L40.925 47.047L40.8775 47.1423C40.4358 46.304 40.0107 45.5039 39.6188 44.7608L39.6782 44.7942L35.5909 45.0323L34.4034 45.0942L34.0827 45.1085H33.9688C34.0014 45.1001 34.0348 45.0953 34.0685 45.0942L34.3749 45.0681L35.5434 44.9728L39.6687 44.668H39.709L39.728 44.7037C40.1223 45.4443 40.5474 46.2445 40.9939 47.0851L41.0366 47.1637L40.9464 47.1804L40.3099 47.2947L34.5506 48.3187H34.5007V48.2687C34.3369 47.2995 34.2039 46.5065 34.1065 45.942C34.0661 45.6801 34.0305 45.4658 34.0068 45.3157C33.9895 45.2444 33.9768 45.172 33.9688 45.099Z" fill="#263238"/>
<path d="M35.0196 51.3525C35.0552 51.3811 34.5446 51.9836 34.1195 52.8433C33.6944 53.703 33.5115 54.4722 33.4688 54.4603C33.4737 54.2875 33.5049 54.1164 33.5614 53.9531C33.67 53.5501 33.8172 53.1585 34.0007 52.7838C34.1865 52.4109 34.4102 52.0581 34.6681 51.7312C34.7665 51.5887 34.8849 51.4612 35.0196 51.3525Z" fill="#263238"/>
<path d="M40.7576 40.4552C40.6451 40.3859 40.5394 40.3062 40.4417 40.2171L39.6152 39.5598L39.6865 39.5479C39.367 40.0678 38.9867 40.5475 38.5536 40.9768L38.5132 41.0173L38.4681 40.9792L37.5941 40.2528C36.656 39.4836 35.782 38.8239 35.1432 38.3476L34.3856 37.788C34.2876 37.7271 34.1974 37.6543 34.1172 37.5713C34.2223 37.6204 34.3225 37.6794 34.4164 37.7475C34.6017 37.8666 34.8701 38.0452 35.1978 38.2738C35.8509 38.7287 36.7368 39.3812 37.6773 40.1528C37.9836 40.3909 38.2781 40.6505 38.5512 40.8863H38.4776C38.9056 40.4668 39.287 40.0021 39.6152 39.5003L39.6461 39.4526L39.6889 39.4884L40.4868 40.1814C40.586 40.2633 40.6767 40.3551 40.7576 40.4552Z" fill="#263238"/>
<path d="M43.0953 39.2525C43.1289 39.3546 43.1449 39.4617 43.1428 39.5692C43.1574 39.8521 43.1479 40.1358 43.1143 40.417L43.0953 40.5671L43.0075 40.4408C42.7983 40.1355 42.5724 39.8421 42.3306 39.5621C42.2285 39.443 42.1264 39.3239 42.0242 39.2239C41.9767 39.1739 41.9197 39.112 41.8794 39.0739C41.839 39.0358 41.8319 39.0405 41.7891 39.0882C41.6395 39.3001 41.497 39.4978 41.3687 39.6764C41.2472 39.8647 41.108 40.0409 40.9531 40.2027C41.0471 39.9991 41.1608 39.8052 41.2927 39.624L41.6917 39.0167C41.7178 38.9739 41.7596 38.9431 41.8081 38.931C41.8343 38.9273 41.8609 38.9293 41.8863 38.9367C41.9117 38.944 41.9352 38.9567 41.9554 38.9739C42.0219 39.031 42.0622 39.0786 42.1192 39.1334C42.2214 39.2406 42.3282 39.3549 42.4303 39.474C42.6767 39.7589 42.9021 40.0613 43.1048 40.3789L43.0003 40.4027C43.1025 39.7193 43.0668 39.2525 43.0953 39.2525Z" fill="#263238"/>
<path d="M32.9405 41.4479C32.809 41.3193 32.6905 41.1781 32.5866 41.0264C32.3195 40.6807 32.0044 40.3751 31.6508 40.119C31.2932 39.8776 30.8884 39.7153 30.4634 39.6427C30.281 39.6286 30.1 39.6008 29.9219 39.5594C30.105 39.5284 30.2921 39.5284 30.4752 39.5594C30.9273 39.6047 31.3612 39.7609 31.7387 40.0142C32.1025 40.276 32.419 40.5981 32.6745 40.9668C32.7869 41.1128 32.8766 41.2749 32.9405 41.4479Z" fill="#263238"/>
<path d="M45.3391 44.9582C45.1467 44.5686 44.9955 44.16 44.8879 43.7389C44.736 43.3322 44.627 42.9108 44.5625 42.4814C44.7525 42.872 44.9036 43.2804 45.0137 43.7007C45.1629 44.1082 45.2719 44.5294 45.3391 44.9582Z" fill="#263238"/>
<path d="M37.2326 46.7656C37.1795 46.8218 37.1494 46.896 37.1485 46.9734C37.1475 47.0508 37.1758 47.1257 37.2275 47.1832C37.2793 47.2406 37.3508 47.2763 37.4277 47.2831C37.5047 47.29 37.5813 47.2674 37.6424 47.22C37.7034 47.1726 37.7444 47.1039 37.757 47.0275C37.7697 46.9511 37.7531 46.8728 37.7106 46.8081C37.6682 46.7435 37.6029 46.6973 37.5279 46.6788C37.4529 46.6603 37.3738 46.6709 37.3062 46.7085" fill="#E0E0E0"/>
<g opacity="0.3">
<path d="M33.5781 43.3848L35.1788 48.1382L40.4536 47.188L35.3665 49.186L34.9414 50.834L33.5781 43.3848Z" fill="black"/>
</g>
<g opacity="0.3">
<path d="M34.25 37.667L38.9667 41.9536L39.6958 39.9532L40.4605 40.208L39.6435 39.5293C39.6435 39.5293 38.7458 40.9105 38.5059 40.9343L34.25 37.667Z" fill="black"/>
</g>
<path d="M43.2387 47.9157C43.1951 47.8238 43.1625 47.7271 43.1413 47.6276C43.082 47.4133 43.0083 47.1513 42.9181 46.8346C42.7305 46.163 42.4597 45.2414 42.1272 44.2316C41.7947 43.2219 41.4622 42.3265 41.2152 41.6716L40.9231 40.9C40.8805 40.8079 40.8487 40.7112 40.8281 40.6118C40.8847 40.696 40.9317 40.7862 40.9683 40.8809C41.0537 41.0571 41.1677 41.3143 41.3031 41.6358C41.5715 42.2788 41.9182 43.179 42.2531 44.1911C42.588 45.2033 42.8445 46.132 43.0083 46.8107C43.0915 47.1489 43.1532 47.4252 43.1912 47.6157C43.2179 47.7137 43.2338 47.8143 43.2387 47.9157Z" fill="#263238"/>
<path d="M43.1649 42.6369C44.0555 43.53 46.3094 45.859 46.3094 45.859L46.9126 45.4947L43.7278 42.0868C43.6638 42.0173 43.5772 41.973 43.4835 41.9621C43.3898 41.9512 43.2953 41.9743 43.2171 42.0273C43.1693 42.0606 43.1294 42.1041 43.1002 42.1547C43.071 42.2052 43.0533 42.2616 43.0483 42.3198C43.0433 42.378 43.0512 42.4366 43.0713 42.4914C43.0915 42.5462 43.1234 42.5959 43.1649 42.6369Z" fill="#263238"/>
<path d="M43.8047 47.9378L44.5647 45.7945C44.6416 45.5616 44.7876 45.3578 44.9834 45.2105C45.1791 45.0632 45.415 44.9795 45.6595 44.9705C45.6975 44.9682 45.7356 44.9682 45.7735 44.9705C46.2272 45.0205 48.5499 45.173 48.5499 45.173L49.45 46.1827C49.5211 46.2683 49.56 46.3761 49.56 46.4875C49.56 46.5989 49.5211 46.7068 49.45 46.7923L49.7065 48.6165L49.1982 48.9619L49.2481 50.2359C49.2481 50.2359 48.7921 50.5384 48.5902 50.4384L48.3884 50.336L48.0868 50.0335L47.2294 51.2481L46.0419 51.9363L43.8047 47.9378Z" fill="#FFBF9D"/>
<path d="M49.4635 46.8941C49.363 46.7687 49.2543 46.6502 49.1381 46.5393C49.0097 46.4283 48.8636 46.3398 48.7059 46.2773C48.4991 46.2299 48.2885 46.2012 48.0765 46.1916C47.5175 46.1614 46.9616 46.0873 46.4141 45.9701C46.9697 45.9574 47.5255 45.9877 48.0765 46.0606C48.299 46.0697 48.5197 46.1041 48.7344 46.163C48.9045 46.2355 49.0592 46.3397 49.1904 46.4702C49.3263 46.5768 49.4224 46.7261 49.4635 46.8941Z" fill="#FF9A6C"/>
<path d="M49.4163 48.5713C49.3653 48.4082 49.3026 48.249 49.2286 48.0951C49.0216 47.7507 48.7056 47.4858 48.3309 47.3425C47.9505 47.2039 47.5481 47.1361 47.1434 47.1425C46.973 47.1539 46.8019 47.1476 46.6328 47.1234C46.798 47.0715 46.9703 47.0458 47.1434 47.0472C47.5634 47.0149 47.9853 47.0734 48.3808 47.2187C48.7831 47.3718 49.1147 47.6687 49.3118 48.0522C49.4044 48.2083 49.4412 48.3914 49.4163 48.5713Z" fill="#FF9A6C"/>
<path d="M49.1779 50.1456C49.0945 49.9916 49.0528 49.8183 49.0568 49.6431C49.0461 49.4636 49.0076 49.2869 48.9428 49.1192C48.8981 49.0253 48.8317 48.9434 48.7491 48.8804C48.6665 48.8174 48.57 48.7752 48.4678 48.7572C48.0692 48.6718 47.6654 48.6137 47.2589 48.5834C47.0859 48.5755 46.9159 48.5351 46.7578 48.4643C46.9283 48.4618 47.0989 48.4698 47.2684 48.4881C47.6838 48.4933 48.0975 48.5403 48.5034 48.6286C48.6258 48.6582 48.7412 48.7116 48.843 48.7858C48.9373 48.8614 49.0108 48.9597 49.0568 49.0716C49.1224 49.2523 49.1546 49.4436 49.1518 49.636C49.1518 49.9432 49.1922 50.1289 49.1779 50.1456Z" fill="#FF9A6C"/>
<path d="M50.4504 46.1113L40.4375 56.4802L40.8222 56.8731L47.9946 56.0611L57.6489 46.8401L57.6394 46.3971L50.4504 46.1113Z" fill="#455A64"/>
<g opacity="0.3">
<path d="M51.1016 52.6268C50.9071 52.4506 50.6778 52.3172 50.4287 52.2352C50.1796 52.1531 49.9162 52.1243 49.6553 52.1505C49.131 52.2044 48.6348 52.4142 48.2303 52.753C47.8871 53.0046 47.6366 53.363 47.5178 53.7723C47.3516 54.4867 47.8266 55.2416 48.4678 55.5893L48.5581 55.4845C49.3798 54.8225 50.2023 54.1612 51.0256 53.5008C51.1588 53.4138 51.2591 53.2847 51.3106 53.134C51.32 53.0388 51.3058 52.9427 51.2693 52.8542C51.2329 52.7658 51.1753 52.6877 51.1016 52.6268Z" fill="black"/>
</g>
<path d="M50.0444 51.6577C50.0444 51.6577 51.0158 51.6768 51.3316 51.8339C51.6475 51.9911 52.5191 52.9223 52.5191 52.9223C52.5191 52.9223 52.5191 53.5557 52.2674 53.5819C52.2957 53.7232 52.3124 53.8666 52.3173 54.0106C52.341 54.3654 52.3933 54.5679 51.9135 54.8727C51.9135 54.8727 51.9634 55.4538 51.7876 55.6062C51.6671 55.7072 51.5402 55.8003 51.4076 55.8848C51.4076 55.8848 50.8519 56.5683 50.5242 56.5183C50.1964 56.4683 49.7214 56.8707 49.7214 56.8707C49.7214 56.8707 47.9378 56.1301 48.1278 55.9181L48.7429 55.2323C48.7429 55.2323 47.5198 54.3392 47.5555 54.0606C47.5911 53.782 47.6813 53.7558 47.6813 53.7558C47.6813 53.7558 47.6315 53.2247 48.0613 53.1747C48.0613 53.1747 48.3891 52.515 48.7168 52.4912C49.0446 52.4674 51.2651 53.2747 51.2651 53.2747L50.4339 52.5603C50.4339 52.5603 49.6003 52.4341 49.6264 52.1554C49.6525 51.8768 50.0444 51.6577 50.0444 51.6577Z" fill="#FFBF9D"/>
<path d="M49.889 54.9915C49.5044 54.8291 49.1286 54.6462 48.7633 54.4438C48.3773 54.2818 47.9999 54.0998 47.6328 53.8984C48.0481 53.9788 48.4485 54.1226 48.8203 54.3247C49.2095 54.4888 49.5703 54.7139 49.889 54.9915Z" fill="#FF9A6C"/>
<path d="M51.0633 54.2177C50.5676 54.101 50.0829 53.9416 49.6145 53.7414C49.1308 53.5829 48.6613 53.3837 48.2109 53.146C48.7067 53.2623 49.1915 53.4216 49.6597 53.6223C50.1439 53.7795 50.6135 53.9787 51.0633 54.2177Z" fill="#FF9A6C"/>
<path d="M57.6144 46.8108C57.571 46.8168 57.5271 46.8168 57.4838 46.8108H57.1014L55.6764 46.7941L50.689 46.6988L50.7341 46.6798L48.2261 49.2994L43.0107 54.6696L41.4219 56.2866L40.9873 56.72C40.9389 56.7733 40.8856 56.822 40.8281 56.8653C40.8707 56.8079 40.9176 56.7537 40.9683 56.7033L41.3862 56.2509L42.9418 54.6053L48.1169 49.2089L50.632 46.606L50.651 46.5869H50.6771L55.6645 46.7298L57.0895 46.7822L57.4766 46.8108H57.6144Z" fill="#263238"/>
<path d="M47.9734 60.9146L49.0469 62.4196C49.0469 62.4196 49.9969 71.393 49.5813 71.805C49.1657 72.2169 47.7146 72.2193 47.7146 72.2193L47.3203 61.4742L47.9734 60.9146Z" fill="#455A64"/>
<path d="M47.9805 60.9146H29.375V64.0295H47.9805V60.9146Z" fill="#455A64"/>
<path d="M29.9399 62.4189H38.5539V71.2851C38.5539 71.7222 38.3807 72.1413 38.0725 72.4504C37.7643 72.7594 37.3463 72.9331 36.9104 72.9331H31.581C31.1451 72.9331 30.7271 72.7594 30.4189 72.4504C30.1107 72.1413 29.9375 71.7222 29.9375 71.2851V62.4189H29.9399Z" fill="#455A64"/>
<path d="M38.5581 65.2666C38.5329 65.0875 38.521 64.9068 38.5224 64.726C38.5159 64.2376 38.4521 63.7516 38.3324 63.2781C38.2912 63.128 38.2146 62.9899 38.1092 62.8756C37.9858 62.7548 37.8496 62.6478 37.7031 62.5565C37.3729 62.3646 37.0049 62.2475 36.6248 62.2136C35.815 62.154 34.9054 62.1802 33.9601 62.1897C33.0149 62.1993 32.0981 62.1135 31.3073 62.2874C30.9314 62.3422 30.5836 62.5187 30.3169 62.7899C30.1258 63.0602 30.0169 63.3804 30.0034 63.7115C29.9464 64.3259 29.9583 64.8332 29.9464 65.1809C29.9464 65.3428 29.9464 65.4762 29.9464 65.5833C29.9477 65.6298 29.9429 65.6762 29.9322 65.7214C29.9287 65.6755 29.9287 65.6293 29.9322 65.5833V65.1809C29.9322 64.8332 29.9013 64.3283 29.9464 63.702C29.9552 63.3501 30.0676 63.0087 30.2694 62.7208C30.5478 62.4253 30.9162 62.231 31.3168 62.1683C31.7426 62.0821 32.1769 62.0445 32.6111 62.0564C33.0576 62.0564 33.5208 62.0564 33.9934 62.0564C34.9434 62.0564 35.8435 62.023 36.6747 62.0921C37.0713 62.1292 37.4544 62.2554 37.7957 62.4612C37.9486 62.5578 38.0897 62.6721 38.2161 62.8018C38.3306 62.9283 38.4122 63.0813 38.4536 63.2471C38.5686 63.7297 38.6205 64.2252 38.6079 64.7212C38.6079 64.8832 38.6079 65.0165 38.6079 65.1237C38.5957 65.1728 38.579 65.2206 38.5581 65.2666Z" fill="#263238"/>
<path d="M38.4933 66.1873C38.4933 66.2254 36.5933 66.254 34.2634 66.254C31.9336 66.254 30.0312 66.2254 30.0312 66.1873C30.0312 66.1492 31.9312 66.123 34.2634 66.123C36.5957 66.123 38.4933 66.1516 38.4933 66.1873Z" fill="#263238"/>
<path d="M32.4102 73.0289C32.3722 73.0289 32.3438 71.4929 32.3438 69.5996C32.3438 67.7064 32.3722 66.168 32.4102 66.168C32.4482 66.168 32.4744 67.704 32.4744 69.5996C32.4744 71.4953 32.4459 73.0289 32.4102 73.0289Z" fill="#263238"/>
<path d="M36.3009 73.0075C36.2652 73.0075 36.2344 71.4858 36.2344 69.6092C36.2344 67.7326 36.2652 66.2085 36.3009 66.2085C36.3365 66.2085 36.3674 67.7302 36.3674 69.6092C36.3674 71.4882 36.3412 73.0075 36.3009 73.0075Z" fill="#263238"/>
<path d="M44.6087 63.9028C44.5042 63.4066 44.4579 62.8999 44.471 62.393C44.4423 61.8852 44.475 61.3759 44.5684 60.876C44.6077 61.3798 44.6196 61.8854 44.604 62.3906C44.6326 62.8942 44.6342 63.399 44.6087 63.9028Z" fill="#263238"/>
<path d="M48.0015 60.9619C48.0622 61.1242 48.1005 61.2941 48.1155 61.4668C48.1653 61.7835 48.2176 62.2217 48.2437 62.7075C48.2668 62.9403 48.2572 63.1752 48.2152 63.4053C48.1778 63.6014 48.0757 63.7792 47.9255 63.9102C47.8239 63.9983 47.6961 64.0502 47.5621 64.0578C47.4671 64.0578 47.4196 64.034 47.422 64.0268C47.5865 64.0173 47.7426 63.9508 47.8637 63.8387C47.9897 63.7158 48.073 63.5555 48.1012 63.3815C48.1326 63.1606 48.1373 62.9367 48.1155 62.7147C48.0608 61.7478 47.973 60.9691 48.0015 60.9619Z" fill="#263238"/>
<path d="M35.7148 31.6101C35.3446 30.5731 35.0634 29.5063 34.8741 28.4214C34.6831 27.3316 34.7647 26.2115 35.1116 25.1611C35.1686 25.004 35.6602 23.9537 35.8241 23.9704C35.9428 23.9704 35.6436 24.9635 35.7029 25.0659C36.2463 26.0744 36.4723 27.2243 36.3513 28.3642C36.2554 29.4676 36.038 30.5571 35.7029 31.6125" fill="#263238"/>
<path d="M41.8963 37.6884C41.8963 36.912 41.8963 36.2976 41.9153 36.2976C41.9343 36.2976 44.5753 36.019 44.7391 33.3732C44.8175 32.0967 44.7676 29.4509 44.694 27.0599C44.6556 25.8202 44.1531 24.6404 43.2866 23.7552C42.4202 22.87 41.2531 22.3443 40.0177 22.2827H39.7636C37.011 22.3065 35.4886 24.6642 35.5908 27.4243L35.6193 35.6189L41.0817 39.5387L41.8963 37.6884Z" fill="#FFBF9D"/>
<path d="M41.9101 36.2972C40.691 36.2329 39.5157 35.8197 38.5234 35.1064C38.5234 35.1064 39.2526 37.1116 41.8959 37.0116L41.9101 36.2972Z" fill="#FF9A6C"/>
<path d="M43.8076 29.3149C43.8038 29.4134 43.7617 29.5066 43.6902 29.5743C43.6187 29.642 43.5235 29.6788 43.4252 29.6769C43.3771 29.6785 43.3292 29.6703 43.2843 29.653C43.2394 29.6356 43.1985 29.6094 43.1639 29.5758C43.1293 29.5423 43.1018 29.5021 43.0831 29.4577C43.0643 29.4133 43.0547 29.3655 43.0547 29.3173C43.0584 29.2187 43.1006 29.1256 43.1721 29.0579C43.2436 28.9902 43.3387 28.9533 43.4371 28.9553C43.4851 28.9537 43.5331 28.9618 43.5779 28.9792C43.6228 28.9965 43.6638 29.0227 43.6984 29.0563C43.7329 29.0898 43.7604 29.13 43.7792 29.1745C43.7979 29.2189 43.8076 29.2666 43.8076 29.3149Z" fill="#263238"/>
<path d="M44.0824 28.1292C44.0326 28.1768 43.7571 27.9506 43.3533 27.9315C42.9496 27.9124 42.6408 28.1006 42.5981 28.0482C42.5553 27.9958 42.629 27.9386 42.7643 27.8505C42.9452 27.7369 43.1569 27.6828 43.3699 27.6957C43.5812 27.7062 43.7839 27.7829 43.9494 27.9148C44.0682 28.0172 44.1062 28.1077 44.0824 28.1292Z" fill="#263238"/>
<path d="M40.1771 29.3388C40.1722 29.4371 40.1298 29.5298 40.0586 29.5977C39.9874 29.6655 39.8929 29.7033 39.7947 29.7032C39.7465 29.7048 39.6985 29.6966 39.6535 29.6793C39.6085 29.662 39.5674 29.6358 39.5326 29.6023C39.4979 29.5688 39.4702 29.5286 39.4511 29.4842C39.4321 29.4397 39.4222 29.3919 39.4219 29.3436C39.4256 29.2448 39.4677 29.1514 39.5391 29.0833C39.6105 29.0153 39.7057 28.9779 39.8042 28.9792C39.8524 28.9776 39.9005 28.9857 39.9455 29.003C39.9905 29.0204 40.0316 29.0466 40.0664 29.0801C40.1011 29.1136 40.1288 29.1538 40.1478 29.1982C40.1669 29.2426 40.1768 29.2904 40.1771 29.3388Z" fill="#263238"/>
<path d="M40.105 28.0955C40.0551 28.1431 39.7796 27.9169 39.3735 27.8978C38.9674 27.8788 38.661 28.0669 38.6206 28.0145C38.5803 27.9621 38.6515 27.905 38.7869 27.8168C38.9677 27.7032 39.1795 27.6491 39.3925 27.662C39.6033 27.6714 39.8055 27.7482 39.9696 27.8811C40.0907 27.9835 40.1406 28.074 40.105 28.0955Z" fill="#263238"/>
<path d="M41.3972 31.294C41.6143 31.2366 41.8377 31.207 42.0622 31.2059C42.1643 31.2059 42.2641 31.1845 42.2854 31.1154C42.2998 31.0082 42.2807 30.8993 42.2308 30.8034C42.1477 30.5486 42.0574 30.2795 41.9648 29.9985C41.5943 28.8506 41.3331 27.91 41.3806 27.8957C41.4281 27.8814 41.7629 28.7982 42.1311 29.9461C42.2213 30.2295 42.3044 30.4986 42.3852 30.7558C42.4446 30.884 42.4564 31.0293 42.4184 31.1654C42.4017 31.2012 42.3772 31.2327 42.3469 31.2579C42.3165 31.283 42.2809 31.301 42.2427 31.3107C42.1842 31.3231 42.1243 31.3279 42.0646 31.325C41.8417 31.3419 41.6176 31.3315 41.3972 31.294Z" fill="#263238"/>
<path d="M40.186 31.5153C40.2525 31.5153 40.2311 31.9559 40.5921 32.2869C40.9531 32.6179 41.4257 32.5941 41.4257 32.656C41.4257 32.7179 41.3165 32.737 41.1194 32.7322C40.8607 32.7225 40.6137 32.6222 40.4211 32.4488C40.2376 32.2825 40.126 32.051 40.11 31.8034C40.1029 31.6177 40.1575 31.5105 40.186 31.5153Z" fill="#263238"/>
<path d="M40.157 26.4436C40.1119 26.5532 39.7081 26.4793 39.2308 26.5151C38.7534 26.5508 38.3591 26.6579 38.3021 26.5555C38.276 26.5079 38.3473 26.4079 38.5088 26.3174C38.721 26.1939 38.9596 26.1229 39.2046 26.1102C39.4483 26.0944 39.6923 26.136 39.9171 26.2317C40.0929 26.3007 40.176 26.3936 40.157 26.4436Z" fill="#263238"/>
<path d="M43.9875 26.7684C43.9115 26.8565 43.636 26.7469 43.3011 26.7255C42.9663 26.7041 42.6765 26.7565 42.6171 26.6564C42.5886 26.6088 42.6385 26.5183 42.7668 26.4373C42.9384 26.3377 43.1369 26.2944 43.3344 26.3135C43.5314 26.3261 43.7194 26.4011 43.8711 26.5278C43.9851 26.6279 44.0208 26.7255 43.9875 26.7684Z" fill="#263238"/>
<path d="M35.7103 29.3798C35.6652 29.3584 33.9243 28.7511 33.8911 30.5706C33.8578 32.39 35.6794 32.0423 35.6842 31.9994C35.6889 31.9566 35.7103 29.3798 35.7103 29.3798Z" fill="#FFBF9D"/>
<path d="M35.1497 31.2861C35.1497 31.2861 35.1164 31.3075 35.0642 31.329C34.988 31.3594 34.903 31.3594 34.8267 31.329C34.7106 31.2517 34.6173 31.1447 34.5563 31.0191C34.4954 30.8935 34.469 30.7538 34.48 30.6145C34.4777 30.459 34.511 30.305 34.5773 30.1644C34.5941 30.1081 34.6247 30.0569 34.6661 30.0153C34.7076 29.9737 34.7587 29.9431 34.8148 29.9263C34.8511 29.9172 34.8894 29.921 34.9232 29.9371C34.957 29.9531 34.9841 29.9805 35.0001 30.0144C35.0215 30.0668 35.0001 30.1025 35.0191 30.1049C35.0381 30.1073 35.0595 30.0763 35.0452 30.0001C35.0362 29.9551 35.0118 29.9147 34.9763 29.8858C34.927 29.8477 34.8647 29.8306 34.803 29.8382C34.7288 29.8514 34.6592 29.8835 34.601 29.9315C34.5428 29.9794 34.4978 30.0416 34.4705 30.112C34.3896 30.2669 34.3488 30.4397 34.3517 30.6145C34.3517 30.9813 34.537 31.3289 34.7958 31.4052C34.8442 31.4207 34.8954 31.4249 34.9457 31.4174C34.9959 31.41 35.0437 31.3911 35.0856 31.3623C35.1497 31.3313 35.1497 31.2885 35.1497 31.2861Z" fill="#FF9A6C"/>
<path d="M43.5595 24.0478C43.854 23.8882 42.9848 22.9309 42.2699 22.5975C41.1869 22.0926 39.5316 21.7735 38.527 22.0497C37.3181 22.3808 36.3111 22.9737 35.696 24.0692C35.1025 25.1844 34.8156 26.4378 34.8648 27.7009C34.8439 28.0855 34.9259 28.4686 35.1023 28.8107C35.3517 29.2132 35.8338 29.4704 35.8148 30.0228C35.8068 30.1227 35.8186 30.2232 35.8496 30.3184C35.8806 30.4137 35.9301 30.5018 35.9953 30.5777C36.323 30.9326 36.7315 30.6039 36.9215 30.2753C37.3229 29.5608 37.3751 28.7202 37.4179 27.9081C37.4798 27.3319 37.4469 26.7494 37.3205 26.1839C37.235 25.8815 37.0949 25.5933 37.026 25.2861C36.9819 25.1349 36.9712 24.9758 36.9945 24.8199C37.0179 24.664 37.0748 24.5151 37.1614 24.3836C37.2065 24.3297 37.2566 24.2802 37.311 24.2359C37.5653 24.0162 37.8737 23.8688 38.204 23.8089C38.5344 23.749 38.8747 23.7789 39.1896 23.8954C40.2037 24.2669 41.9374 24.8218 42.3958 24.4788C43.0537 23.9859 43.2128 23.6644 43.2128 23.6644L43.5595 24.0478Z" fill="#263238"/>
<path d="M38.7129 21.0036C38.5918 21.0155 35.6468 21.5466 34.8227 23.6899C33.9986 25.8332 34.1815 26.5143 34.1815 26.5143C34.0656 26.5786 33.9593 26.6587 33.8656 26.7524C33.7373 26.8906 33.8846 27.5836 34.2693 27.524C37.1715 26.3857 40.5464 26.4095 44.2964 26.6929L47.1725 26.7834C47.9729 26.912 48.265 26.712 47.9325 26.4929C47.6808 26.3262 45.4364 25.3021 45.4364 25.3021L45.0018 24.9544L43.8879 23.2493C43.8879 23.2493 44.0447 23.0278 43.7621 22.823C43.4794 22.6182 41.0879 20.7774 38.7129 21.0036Z" fill="#B0D9EC"/>
<path d="M44.9949 24.969H44.8833L44.5627 24.9475C44.2848 24.9237 43.881 24.9094 43.3752 24.8975C42.0767 24.8848 40.7796 24.9876 39.4992 25.2047C38.217 25.4223 36.9483 25.7133 35.6993 26.0763C35.2243 26.2121 34.8324 26.3288 34.5641 26.4074L34.2577 26.4979C34.1864 26.5193 34.1484 26.5264 34.1484 26.5264L34.2529 26.4883L34.5593 26.3883C34.8253 26.305 35.21 26.1835 35.6898 26.043C36.9375 25.6708 38.2065 25.3741 39.4897 25.1547C40.7732 24.9383 42.0739 24.841 43.3752 24.8642C43.9165 24.8708 44.4572 24.9058 44.9949 24.969Z" fill="#263238"/>
<g opacity="0.3">
<path d="M35.9844 22.168C35.9844 22.168 39.1478 21.7989 40.5253 22.5395L40.3662 22.4514L41.6677 23.0944C41.7689 23.164 41.8841 23.2103 42.0052 23.23C42.1263 23.2498 42.2503 23.2425 42.3683 23.2087C41.7866 22.702 41.1168 22.3072 40.3923 22.0441C39.098 21.5298 37.0199 21.2464 35.9844 22.168Z" fill="black"/>
</g>
<path d="M35.9375 22.1852C36.0291 22.1193 36.126 22.0612 36.2272 22.0114C36.4995 21.8704 36.7872 21.7617 37.0846 21.6875C37.5278 21.5773 37.9846 21.5324 38.4407 21.5542C39.001 21.5667 39.552 21.7008 40.0557 21.9471C40.3128 22.0793 40.5611 22.228 40.7991 22.3924C41.0366 22.5496 41.2574 22.6901 41.464 22.8449C41.6483 23.0006 41.8462 23.1393 42.0554 23.2593C42.2411 23.356 42.447 23.4074 42.6563 23.4093C43.4281 23.4546 43.9103 23.3164 43.877 23.264C43.8709 23.2778 43.862 23.2901 43.851 23.3004C43.84 23.3106 43.827 23.3185 43.8129 23.3236C43.7368 23.356 43.657 23.3792 43.5754 23.3926C43.2726 23.4429 42.9652 23.4605 42.6587 23.445C42.4432 23.444 42.231 23.3926 42.0388 23.295C41.8263 23.1755 41.6252 23.0368 41.4379 22.8806C41.236 22.7282 41.0033 22.5877 40.7753 22.4305C40.5381 22.2691 40.2914 22.122 40.0367 21.99C39.5385 21.7473 38.9944 21.6141 38.4407 21.5994C37.9892 21.5753 37.5365 21.6162 37.0965 21.7209C36.7996 21.7916 36.5113 21.8946 36.2367 22.0281C36.1394 22.0757 36.0657 22.1162 36.0159 22.1448L35.9375 22.1852Z" fill="#263238"/>
<g opacity="0.3">
<path d="M34.4974 24.5873C35.0236 24.5777 35.5469 24.509 36.0578 24.3824C36.6587 24.28 37.2453 24.2015 37.8509 24.0705C38.3021 23.9681 38.8365 23.8847 39.1405 23.5728C39.1566 23.6852 39.1432 23.8 39.1016 23.9057C39.0599 24.0113 38.9915 24.1043 38.903 24.1753C38.602 24.3561 38.2729 24.485 37.9293 24.5563C36.7545 24.8649 35.5495 25.043 34.3359 25.0874C34.3747 24.9175 34.4247 24.7505 34.4856 24.5873" fill="black"/>
</g>
<path d="M34.9138 23.4567C34.5481 23.5972 34.3248 23.6948 34.3011 23.9949C34.2821 24.2497 34.3201 24.5617 34.5671 24.6164C34.6455 24.6316 34.7261 24.6316 34.8046 24.6164L38.7138 23.9973C38.849 23.9929 38.978 23.9396 39.0771 23.8472C39.1334 23.7608 39.1535 23.6556 39.133 23.5545C39.1126 23.4533 39.0533 23.3643 38.9679 23.3066C38.7906 23.1987 38.5863 23.1434 38.3789 23.1471C37.2152 23.0932 36.0497 23.1974 34.9138 23.4567Z" fill="#B0D9EC"/>
<path d="M39.0146 23.9026C39.0674 23.8602 39.1063 23.803 39.1262 23.7382C39.1525 23.6503 39.1535 23.5568 39.1291 23.4683C39.1047 23.3799 39.056 23.3001 38.9885 23.2381C38.7622 23.083 38.4899 23.0099 38.2166 23.031C37.9031 23.031 37.5588 23.031 37.1978 23.0571C36.5831 23.0813 35.9718 23.161 35.3714 23.2953C35.1339 23.3477 34.9558 23.4025 34.8299 23.4406L34.6851 23.4858C34.6682 23.4923 34.6507 23.4971 34.6328 23.5001C34.6482 23.4904 34.6651 23.4832 34.6827 23.4787C34.7254 23.4596 34.7729 23.4429 34.8252 23.4239C35.0011 23.3604 35.1803 23.3064 35.3619 23.262C35.9631 23.1158 36.5773 23.0297 37.1954 23.0048C37.5588 22.9857 37.9079 22.9809 38.2166 22.9809C38.5014 22.9649 38.7829 23.0491 39.0122 23.2191C39.083 23.2854 39.1332 23.3708 39.1568 23.465C39.1804 23.5592 39.1764 23.6582 39.1452 23.7502C39.127 23.799 39.0977 23.843 39.0597 23.8788C39.0312 23.8954 39.017 23.9049 39.0146 23.9026Z" fill="#263238"/>
<path d="M44.2227 23.7996L41.7812 23.6377L41.957 24.3378L44.617 24.4021L44.2227 23.7996Z" fill="white"/>
<path d="M40.4297 25.8096C40.4297 25.7953 41.5269 25.6881 42.8807 25.5714C44.2344 25.4547 45.334 25.3666 45.334 25.3809C45.334 25.3952 44.2391 25.5024 42.8854 25.6191C41.5317 25.7358 40.4321 25.8239 40.4297 25.8096Z" fill="#263238"/>
</g>
<defs>
<clipPath id="clip0_2036_6526">
<rect width="149.908" height="119.073" fill="white" transform="translate(0 0.611328)"/>
</clipPath>
</defs>
</svg>
